<svg width="375" height="52" viewBox="0 0 375 52" fill="none" xmlns="http://www.w3.org/2000/svg">
<path d="M0 14C0 11.2386 2.23858 9 5 9H370C372.761 9 375 11.2386 375 14V43C375 45.7614 372.761 48 370 48H5C2.23857 48 0 45.7614 0 43V14Z" fill="url(#paint0_linear_1043_72997)"/>
<path d="M0 14C0 11.2386 2.23858 9 5 9H370C372.761 9 375 11.2386 375 14V43C375 45.7614 372.761 48 370 48H5C2.23857 48 0 45.7614 0 43V14Z" fill="#FBE3FF"/>
<path d="M26.9581 24.148V27.1427H30.4813V28.5079H26.9581V31.6348H30.9217V33H25.2846V22.7827H30.9217V24.148H26.9581ZM32.4252 28.919C32.4252 28.1067 32.5915 27.3873 32.9243 26.761C33.2668 26.1347 33.7268 25.6502 34.3042 25.3077C34.8914 24.9554 35.5373 24.7792 36.242 24.7792C36.8781 24.7792 37.431 24.9064 37.9008 25.1609C38.3803 25.4055 38.762 25.7138 39.0458 26.0857V24.9113H40.734V33H39.0458V31.7962C38.762 32.1779 38.3754 32.496 37.8861 32.7504C37.3968 33.0049 36.8389 33.1321 36.2126 33.1321C35.5177 33.1321 34.8816 32.956 34.3042 32.6036C33.7268 32.2415 33.2668 31.7424 32.9243 31.1063C32.5915 30.4604 32.4252 29.7313 32.4252 28.919ZM39.0458 28.9483C39.0458 28.3905 38.9284 27.906 38.6935 27.495C38.4684 27.084 38.1699 26.7708 37.798 26.5555C37.4261 26.3402 37.0249 26.2325 36.5943 26.2325C36.1637 26.2325 35.7624 26.3402 35.3905 26.5555C35.0186 26.761 34.7152 27.0693 34.4804 27.4803C34.2553 27.8816 34.1427 28.3611 34.1427 28.919C34.1427 29.4768 34.2553 29.9661 34.4804 30.387C34.7152 30.8078 35.0186 31.1307 35.3905 31.3558C35.7722 31.5711 36.1734 31.6788 36.5943 31.6788C37.0249 31.6788 37.4261 31.5711 37.798 31.3558C38.1699 31.1405 38.4684 30.8274 38.6935 30.4163C38.9284 29.9955 39.0458 29.5062 39.0458 28.9483ZM45.8681 33.1321C45.232 33.1321 44.6595 33.0196 44.1506 32.7945C43.6515 32.5596 43.2551 32.2464 42.9615 31.855C42.6679 31.4537 42.5113 31.0084 42.4917 30.5191H44.224C44.2533 30.8616 44.4148 31.1503 44.7084 31.3852C45.0118 31.6103 45.3886 31.7228 45.8388 31.7228C46.3085 31.7228 46.6706 31.6348 46.9251 31.4586C47.1893 31.2727 47.3215 31.0378 47.3215 30.754C47.3215 30.4506 47.1747 30.2255 46.8811 30.0787C46.5972 29.9319 46.1422 29.7704 45.5158 29.5942C44.909 29.4279 44.4148 29.2664 44.0331 29.1098C43.6515 28.9532 43.3187 28.7134 43.0349 28.3905C42.7609 28.0675 42.6239 27.6418 42.6239 27.1133C42.6239 26.6827 42.7511 26.2912 43.0055 25.9389C43.26 25.5768 43.6221 25.293 44.0919 25.0875C44.5714 24.882 45.1195 24.7792 45.736 24.7792C46.656 24.7792 47.3949 25.0141 47.9527 25.4838C48.5203 25.9438 48.8237 26.5751 48.8629 27.3776H47.1893C47.16 27.0155 47.0132 26.7267 46.7489 26.5114C46.4847 26.2961 46.1275 26.1885 45.6773 26.1885C45.2369 26.1885 44.8993 26.2717 44.6644 26.438C44.4295 26.6044 44.3121 26.8246 44.3121 27.0986C44.3121 27.3139 44.3903 27.495 44.5469 27.6418C44.7035 27.7886 44.8944 27.906 45.1195 27.9941C45.3445 28.0724 45.6773 28.1752 46.1177 28.3024C46.7049 28.459 47.1844 28.6205 47.5563 28.7868C47.938 28.9434 48.2659 29.1783 48.5399 29.4915C48.8139 29.8047 48.9558 30.2206 48.9656 30.7393C48.9656 31.1993 48.8384 31.6103 48.5839 31.9724C48.3295 32.3345 47.9674 32.6183 47.4976 32.8238C47.0376 33.0294 46.4945 33.1321 45.8681 33.1321ZM58.0552 24.9113L53.0933 36.8021H51.3611L53.0052 32.8679L49.8197 24.9113H51.684L53.9595 31.0769L56.3229 24.9113H58.0552ZM65.0839 26.2766V30.754C65.0839 31.0573 65.1524 31.2775 65.2894 31.4146C65.4362 31.5418 65.6809 31.6054 66.0234 31.6054H67.051V33H65.7298C64.9763 33 64.3988 32.8238 63.9976 32.4715C63.5963 32.1192 63.3957 31.5467 63.3957 30.754V26.2766H62.4415V24.9113H63.3957V22.9002H65.0839V24.9113H67.051V26.2766H65.0839ZM72.102 33.1321C71.3386 33.1321 70.6487 32.9609 70.0321 32.6183C69.4155 32.266 68.9311 31.7767 68.5788 31.1503C68.2265 30.5142 68.0503 29.7802 68.0503 28.9483C68.0503 28.1262 68.2314 27.3971 68.5935 26.761C68.9556 26.1249 69.4498 25.6355 70.0761 25.293C70.7025 24.9505 71.4022 24.7792 72.1754 24.7792C72.9485 24.7792 73.6483 24.9505 74.2746 25.293C74.901 25.6355 75.3952 26.1249 75.7573 26.761C76.1194 27.3971 76.3005 28.1262 76.3005 28.9483C76.3005 29.7704 76.1145 30.4995 75.7426 31.1356C75.3707 31.7718 74.8618 32.266 74.2159 32.6183C73.5798 32.9609 72.8751 33.1321 72.102 33.1321ZM72.102 31.6788C72.5326 31.6788 72.9338 31.576 73.3057 31.3705C73.6874 31.165 73.9957 30.8567 74.2306 30.4457C74.4655 30.0346 74.5829 29.5355 74.5829 28.9483C74.5829 28.3611 74.4704 27.8669 74.2453 27.4656C74.0202 27.0546 73.7217 26.7463 73.3498 26.5408C72.9779 26.3353 72.5766 26.2325 72.146 26.2325C71.7154 26.2325 71.3142 26.3353 70.9423 26.5408C70.5802 26.7463 70.2914 27.0546 70.0761 27.4656C69.8608 27.8669 69.7532 28.3611 69.7532 28.9483C69.7532 29.8193 69.9734 30.4946 70.4138 30.9742C70.864 31.4439 71.4267 31.6788 72.102 31.6788ZM81.2103 28.919C81.2103 28.1067 81.3767 27.3873 81.7095 26.761C82.052 26.1347 82.512 25.6502 83.0894 25.3077C83.6766 24.9554 84.3225 24.7792 85.0271 24.7792C85.6633 24.7792 86.2162 24.9064 86.686 25.1609C87.1655 25.4055 87.5472 25.7138 87.831 26.0857V24.9113H89.5192V33H87.831V31.7962C87.5472 32.1779 87.1606 32.496 86.6713 32.7504C86.182 33.0049 85.6241 33.1321 84.9978 33.1321C84.3029 33.1321 83.6668 32.956 83.0894 32.6036C82.512 32.2415 82.052 31.7424 81.7095 31.1063C81.3767 30.4604 81.2103 29.7313 81.2103 28.919ZM87.831 28.9483C87.831 28.3905 87.7136 27.906 87.4787 27.495C87.2536 27.084 86.9551 26.7708 86.5832 26.5555C86.2113 26.3402 85.8101 26.2325 85.3795 26.2325C84.9489 26.2325 84.5476 26.3402 84.1757 26.5555C83.8038 26.761 83.5004 27.0693 83.2655 27.4803C83.0405 27.8816 82.9279 28.3611 82.9279 28.919C82.9279 29.4768 83.0405 29.9661 83.2655 30.387C83.5004 30.8078 83.8038 31.1307 84.1757 31.3558C84.5574 31.5711 84.9586 31.6788 85.3795 31.6788C85.8101 31.6788 86.2113 31.5711 86.5832 31.3558C86.9551 31.1405 87.2536 30.8274 87.4787 30.4163C87.7136 29.9955 87.831 29.5062 87.831 28.9483ZM93.3908 26.1004C93.6747 25.7285 94.0612 25.4153 94.5506 25.1609C95.0399 24.9064 95.5928 24.7792 96.2094 24.7792C96.914 24.7792 97.5551 24.9554 98.1325 25.3077C98.7197 25.6502 99.1797 26.1347 99.5124 26.761C99.8452 27.3873 100.012 28.1067 100.012 28.919C100.012 29.7313 99.8452 30.4604 99.5124 31.1063C99.1797 31.7424 98.7197 32.2415 98.1325 32.6036C97.5551 32.956 96.914 33.1321 96.2094 33.1321C95.5928 33.1321 95.0448 33.0098 94.5652 32.7651C94.0857 32.5107 93.6942 32.1975 93.3908 31.8256V36.8462H91.7173V24.9113H93.3908V26.1004ZM98.3086 28.919C98.3086 28.3611 98.1912 27.8816 97.9563 27.4803C97.7312 27.0693 97.4278 26.761 97.0462 26.5555C96.6743 26.3402 96.273 26.2325 95.8424 26.2325C95.4216 26.2325 95.0203 26.3402 94.6386 26.5555C94.2668 26.7708 93.9634 27.084 93.7285 27.495C93.5034 27.906 93.3908 28.3905 93.3908 28.9483C93.3908 29.5062 93.5034 29.9955 93.7285 30.4163C93.9634 30.8274 94.2668 31.1405 94.6386 31.3558C95.0203 31.5711 95.4216 31.6788 95.8424 31.6788C96.273 31.6788 96.6743 31.5711 97.0462 31.3558C97.4278 31.1307 97.7312 30.8078 97.9563 30.387C98.1912 29.9661 98.3086 29.4768 98.3086 28.919ZM103.34 26.1004C103.624 25.7285 104.01 25.4153 104.5 25.1609C104.989 24.9064 105.542 24.7792 106.159 24.7792C106.863 24.7792 107.504 24.9554 108.082 25.3077C108.669 25.6502 109.129 26.1347 109.462 26.761C109.794 27.3873 109.961 28.1067 109.961 28.919C109.961 29.7313 109.794 30.4604 109.462 31.1063C109.129 31.7424 108.669 32.2415 108.082 32.6036C107.504 32.956 106.863 33.1321 106.159 33.1321C105.542 33.1321 104.994 33.0098 104.514 32.7651C104.035 32.5107 103.643 32.1975 103.34 31.8256V36.8462H101.666V24.9113H103.34V26.1004ZM108.258 28.919C108.258 28.3611 108.14 27.8816 107.905 27.4803C107.68 27.0693 107.377 26.761 106.995 26.5555C106.623 26.3402 106.222 26.2325 105.792 26.2325C105.371 26.2325 104.969 26.3402 104.588 26.5555C104.216 26.7708 103.913 27.084 103.678 27.495C103.453 27.906 103.34 28.3905 103.34 28.9483C103.34 29.5062 103.453 29.9955 103.678 30.4163C103.913 30.8274 104.216 31.1405 104.588 31.3558C104.969 31.5711 105.371 31.6788 105.792 31.6788C106.222 31.6788 106.623 31.5711 106.995 31.3558C107.377 31.1307 107.68 30.8078 107.905 30.387C108.14 29.9661 108.258 29.4768 108.258 28.919ZM113.289 22.1368V33H111.616V22.1368H113.289ZM122.768 24.9113L117.806 36.8021H116.074L117.718 32.8679L114.532 24.9113H116.396L118.672 31.0769L121.035 24.9113H122.768ZM131.235 26.2766H129.738V33H128.049V26.2766H127.095V24.9113H128.049V24.3388C128.049 23.4091 128.294 22.7338 128.783 22.313C129.283 21.8823 130.061 21.667 131.118 21.667V23.0616C130.609 23.0616 130.251 23.1595 130.046 23.3552C129.84 23.5412 129.738 23.869 129.738 24.3388V24.9113H131.235V26.2766ZM133.57 23.8397C133.266 23.8397 133.012 23.7369 132.806 23.5314C132.601 23.3259 132.498 23.0714 132.498 22.768C132.498 22.4647 132.601 22.2102 132.806 22.0047C133.012 21.7992 133.266 21.6964 133.57 21.6964C133.863 21.6964 134.113 21.7992 134.318 22.0047C134.524 22.2102 134.627 22.4647 134.627 22.768C134.627 23.0714 134.524 23.3259 134.318 23.5314C134.113 23.7369 133.863 23.8397 133.57 23.8397ZM134.392 24.9113V33H132.718V24.9113H134.392ZM138.262 22.1368V33H136.589V22.1368H138.262ZM142.412 26.2766V30.754C142.412 31.0573 142.48 31.2775 142.617 31.4146C142.764 31.5418 143.009 31.6054 143.351 31.6054H144.379V33H143.058C142.304 33 141.727 32.8238 141.326 32.4715C140.924 32.1192 140.724 31.5467 140.724 30.754V26.2766H139.77V24.9113H140.724V22.9002H142.412V24.9113H144.379V26.2766H142.412ZM153.335 28.7575C153.335 29.0609 153.315 29.3349 153.276 29.5796H147.096C147.145 30.2255 147.385 30.7442 147.815 31.1356C148.246 31.5271 148.774 31.7228 149.401 31.7228C150.301 31.7228 150.937 31.3461 151.309 30.5925H153.115C152.87 31.3363 152.425 31.9479 151.779 32.4275C151.143 32.8972 150.35 33.1321 149.401 33.1321C148.628 33.1321 147.933 32.9609 147.316 32.6183C146.709 32.266 146.23 31.7767 145.877 31.1503C145.535 30.5142 145.364 29.7802 145.364 28.9483C145.364 28.1165 145.53 27.3873 145.863 26.761C146.205 26.1249 146.68 25.6355 147.287 25.293C147.903 24.9505 148.608 24.7792 149.401 24.7792C150.164 24.7792 150.844 24.9456 151.441 25.2783C152.038 25.6111 152.503 26.0808 152.836 26.6876C153.169 27.2846 153.335 27.9745 153.335 28.7575ZM151.588 28.229C151.578 27.6124 151.358 27.1182 150.927 26.7463C150.497 26.3744 149.963 26.1885 149.327 26.1885C148.75 26.1885 148.256 26.3744 147.845 26.7463C147.434 27.1084 147.189 27.6027 147.111 28.229H151.588ZM156.655 26.0857C156.9 25.6747 157.223 25.3566 157.624 25.1315C158.035 24.8966 158.52 24.7792 159.078 24.7792V26.5114H158.652C157.996 26.5114 157.497 26.6778 157.154 27.0106C156.822 27.3433 156.655 27.9207 156.655 28.7428V33H154.982V24.9113H156.655V26.0857ZM163.552 33.1321C162.916 33.1321 162.343 33.0196 161.834 32.7945C161.335 32.5596 160.939 32.2464 160.645 31.855C160.352 31.4537 160.195 31.0084 160.175 30.5191H161.908C161.937 30.8616 162.099 31.1503 162.392 31.3852C162.696 31.6103 163.072 31.7228 163.522 31.7228C163.992 31.7228 164.354 31.6348 164.609 31.4586C164.873 31.2727 165.005 31.0378 165.005 30.754C165.005 30.4506 164.858 30.2255 164.565 30.0787C164.281 29.9319 163.826 29.7704 163.2 29.5942C162.593 29.4279 162.099 29.2664 161.717 29.1098C161.335 28.9532 161.002 28.7134 160.719 28.3905C160.445 28.0675 160.308 27.6418 160.308 27.1133C160.308 26.6827 160.435 26.2912 160.689 25.9389C160.944 25.5768 161.306 25.293 161.776 25.0875C162.255 24.882 162.803 24.7792 163.42 24.7792C164.34 24.7792 165.079 25.0141 165.636 25.4838C166.204 25.9438 166.507 26.5751 166.547 27.3776H164.873C164.844 27.0155 164.697 26.7267 164.433 26.5114C164.168 26.2961 163.811 26.1885 163.361 26.1885C162.921 26.1885 162.583 26.2717 162.348 26.438C162.113 26.6044 161.996 26.8246 161.996 27.0986C161.996 27.3139 162.074 27.495 162.231 27.6418C162.387 27.7886 162.578 27.906 162.803 27.9941C163.028 28.0724 163.361 28.1752 163.801 28.3024C164.389 28.459 164.868 28.6205 165.24 28.7868C165.622 28.9434 165.95 29.1783 166.224 29.4915C166.498 29.8047 166.64 30.2206 166.649 30.7393C166.649 31.1993 166.522 31.6103 166.268 31.9724C166.013 32.3345 165.651 32.6183 165.181 32.8238C164.721 33.0294 164.178 33.1321 163.552 33.1321ZM175.662 26.2766H174.165V33H172.476V26.2766H171.522V24.9113H172.476V24.3388C172.476 23.4091 172.721 22.7338 173.21 22.313C173.71 21.8823 174.488 21.667 175.545 21.667V23.0616C175.036 23.0616 174.678 23.1595 174.473 23.3552C174.267 23.5412 174.165 23.869 174.165 24.3388V24.9113H175.662V26.2766ZM180.654 33.1321C179.89 33.1321 179.2 32.9609 178.584 32.6183C177.967 32.266 177.483 31.7767 177.13 31.1503C176.778 30.5142 176.602 29.7802 176.602 28.9483C176.602 28.1262 176.783 27.3971 177.145 26.761C177.507 26.1249 178.002 25.6355 178.628 25.293C179.254 24.9505 179.954 24.7792 180.727 24.7792C181.5 24.7792 182.2 24.9505 182.826 25.293C183.453 25.6355 183.947 26.1249 184.309 26.761C184.671 27.3971 184.852 28.1262 184.852 28.9483C184.852 29.7704 184.666 30.4995 184.294 31.1356C183.922 31.7718 183.414 32.266 182.768 32.6183C182.131 32.9609 181.427 33.1321 180.654 33.1321ZM180.654 31.6788C181.084 31.6788 181.486 31.576 181.857 31.3705C182.239 31.165 182.547 30.8567 182.782 30.4457C183.017 30.0346 183.135 29.5355 183.135 28.9483C183.135 28.3611 183.022 27.8669 182.797 27.4656C182.572 27.0546 182.273 26.7463 181.901 26.5408C181.53 26.3353 181.128 26.2325 180.698 26.2325C180.267 26.2325 179.866 26.3353 179.494 26.5408C179.132 26.7463 178.843 27.0546 178.628 27.4656C178.413 27.8669 178.305 28.3611 178.305 28.9483C178.305 29.8193 178.525 30.4946 178.965 30.9742C179.416 31.4439 179.978 31.6788 180.654 31.6788ZM188.18 26.0857C188.425 25.6747 188.748 25.3566 189.149 25.1315C189.56 24.8966 190.044 24.7792 190.602 24.7792V26.5114H190.177C189.521 26.5114 189.022 26.6778 188.679 27.0106C188.346 27.3433 188.18 27.9207 188.18 28.7428V33H186.507V24.9113H188.18V26.0857ZM195.396 28.9483C195.396 28.1165 195.562 27.3873 195.895 26.761C196.238 26.1249 196.708 25.6355 197.304 25.293C197.901 24.9505 198.587 24.7792 199.36 24.7792C200.338 24.7792 201.146 25.0141 201.782 25.4838C202.428 25.9438 202.863 26.6044 203.088 27.4656H201.283C201.136 27.0644 200.901 26.7512 200.578 26.5261C200.255 26.301 199.849 26.1885 199.36 26.1885C198.675 26.1885 198.127 26.4331 197.716 26.9225C197.314 27.402 197.114 28.0773 197.114 28.9483C197.114 29.8193 197.314 30.4995 197.716 30.9888C198.127 31.4782 198.675 31.7228 199.36 31.7228C200.329 31.7228 200.97 31.2971 201.283 30.4457H203.088C202.854 31.2678 202.413 31.9235 201.767 32.4128C201.121 32.8923 200.319 33.1321 199.36 33.1321C198.587 33.1321 197.901 32.9609 197.304 32.6183C196.708 32.266 196.238 31.7767 195.895 31.1503C195.562 30.5142 195.396 29.7802 195.396 28.9483ZM208.94 24.7792C209.557 24.7792 210.105 24.9113 210.584 25.1756C211.073 25.4398 211.455 25.8313 211.729 26.35C212.013 26.8687 212.155 27.495 212.155 28.229V33H210.496V28.4786C210.496 27.7543 210.315 27.2014 209.953 26.8197C209.591 26.4283 209.097 26.2325 208.47 26.2325C207.844 26.2325 207.345 26.4283 206.973 26.8197C206.611 27.2014 206.43 27.7543 206.43 28.4786V33H204.756V22.1368H206.43V25.8508C206.714 25.5083 207.071 25.2441 207.501 25.0581C207.942 24.8722 208.421 24.7792 208.94 24.7792ZM213.732 28.919C213.732 28.1067 213.898 27.3873 214.231 26.761C214.573 26.1347 215.033 25.6502 215.611 25.3077C216.198 24.9554 216.844 24.7792 217.549 24.7792C218.185 24.7792 218.738 24.9064 219.207 25.1609C219.687 25.4055 220.069 25.7138 220.352 26.0857V24.9113H222.041V33H220.352V31.7962C220.069 32.1779 219.682 32.496 219.193 32.7504C218.703 33.0049 218.146 33.1321 217.519 33.1321C216.824 33.1321 216.188 32.956 215.611 32.6036C215.033 32.2415 214.573 31.7424 214.231 31.1063C213.898 30.4604 213.732 29.7313 213.732 28.919ZM220.352 28.9483C220.352 28.3905 220.235 27.906 220 27.495C219.775 27.084 219.477 26.7708 219.105 26.5555C218.733 26.3402 218.331 26.2325 217.901 26.2325C217.47 26.2325 217.069 26.3402 216.697 26.5555C216.325 26.761 216.022 27.0693 215.787 27.4803C215.562 27.8816 215.449 28.3611 215.449 28.919C215.449 29.4768 215.562 29.9661 215.787 30.387C216.022 30.8078 216.325 31.1307 216.697 31.3558C217.079 31.5711 217.48 31.6788 217.901 31.6788C218.331 31.6788 218.733 31.5711 219.105 31.3558C219.477 31.1405 219.775 30.8274 220 30.4163C220.235 29.9955 220.352 29.5062 220.352 28.9483ZM228.32 24.7792C228.956 24.7792 229.524 24.9113 230.023 25.1756C230.532 25.4398 230.928 25.8313 231.212 26.35C231.496 26.8687 231.637 27.495 231.637 28.229V33H229.979V28.4786C229.979 27.7543 229.798 27.2014 229.435 26.8197C229.073 26.4283 228.579 26.2325 227.953 26.2325C227.326 26.2325 226.827 26.4283 226.455 26.8197C226.093 27.2014 225.912 27.7543 225.912 28.4786V33H224.239V24.9113H225.912V25.8362C226.186 25.5034 226.534 25.2441 226.955 25.0581C227.385 24.8722 227.84 24.7792 228.32 24.7792ZM237.031 24.7792C237.657 24.7792 238.21 24.9064 238.69 25.1609C239.179 25.4055 239.561 25.7138 239.835 26.0857V24.9113H241.523V33.1321C241.523 33.8759 241.367 34.5365 241.053 35.1139C240.74 35.7011 240.285 36.1611 239.688 36.4938C239.101 36.8266 238.396 36.993 237.574 36.993C236.478 36.993 235.568 36.7336 234.844 36.2149C234.12 35.706 233.709 35.0112 233.611 34.1304H235.27C235.397 34.5512 235.666 34.8888 236.077 35.1433C236.498 35.4075 236.997 35.5396 237.574 35.5396C238.25 35.5396 238.793 35.3341 239.204 34.9231C239.625 34.512 239.835 33.9151 239.835 33.1321V31.7816C239.551 32.1632 239.165 32.4862 238.675 32.7504C238.196 33.0049 237.648 33.1321 237.031 33.1321C236.326 33.1321 235.681 32.956 235.093 32.6036C234.516 32.2415 234.056 31.7424 233.713 31.1063C233.381 30.4604 233.214 29.7313 233.214 28.919C233.214 28.1067 233.381 27.3873 233.713 26.761C234.056 26.1347 234.516 25.6502 235.093 25.3077C235.681 24.9554 236.326 24.7792 237.031 24.7792ZM239.835 28.9483C239.835 28.3905 239.718 27.906 239.483 27.495C239.258 27.084 238.959 26.7708 238.587 26.5555C238.215 26.3402 237.814 26.2325 237.383 26.2325C236.953 26.2325 236.552 26.3402 236.18 26.5555C235.808 26.761 235.504 27.0693 235.27 27.4803C235.044 27.8816 234.932 28.3611 234.932 28.919C234.932 29.4768 235.044 29.9661 235.27 30.387C235.504 30.8078 235.808 31.1307 236.18 31.3558C236.561 31.5711 236.963 31.6788 237.383 31.6788C237.814 31.6788 238.215 31.5711 238.587 31.3558C238.959 31.1405 239.258 30.8274 239.483 30.4163C239.718 29.9955 239.835 29.5062 239.835 28.9483ZM251.135 28.7575C251.135 29.0609 251.115 29.3349 251.076 29.5796H244.896C244.945 30.2255 245.184 30.7442 245.615 31.1356C246.046 31.5271 246.574 31.7228 247.2 31.7228C248.101 31.7228 248.737 31.3461 249.109 30.5925H250.914C250.67 31.3363 250.225 31.9479 249.579 32.4275C248.942 32.8972 248.15 33.1321 247.2 33.1321C246.427 33.1321 245.732 32.9609 245.116 32.6183C244.509 32.266 244.03 31.7767 243.677 31.1503C243.335 30.5142 243.163 29.7802 243.163 28.9483C243.163 28.1165 243.33 27.3873 243.663 26.761C244.005 26.1249 244.48 25.6355 245.087 25.293C245.703 24.9505 246.408 24.7792 247.2 24.7792C247.964 24.7792 248.644 24.9456 249.241 25.2783C249.838 25.6111 250.303 26.0808 250.636 26.6876C250.968 27.2846 251.135 27.9745 251.135 28.7575ZM249.388 28.229C249.378 27.6124 249.158 27.1182 248.727 26.7463C248.297 26.3744 247.763 26.1885 247.127 26.1885C246.55 26.1885 246.055 26.3744 245.644 26.7463C245.233 27.1084 244.989 27.6027 244.91 28.229H249.388ZM256.037 28.9483C256.037 28.1165 256.203 27.3873 256.536 26.761C256.879 26.1249 257.349 25.6355 257.946 25.293C258.542 24.9505 259.228 24.7792 260.001 24.7792C260.979 24.7792 261.787 25.0141 262.423 25.4838C263.069 25.9438 263.504 26.6044 263.729 27.4656H261.924C261.777 27.0644 261.542 26.7512 261.219 26.5261C260.896 26.301 260.49 26.1885 260.001 26.1885C259.316 26.1885 258.768 26.4331 258.357 26.9225C257.955 27.402 257.755 28.0773 257.755 28.9483C257.755 29.8193 257.955 30.4995 258.357 30.9888C258.768 31.4782 259.316 31.7228 260.001 31.7228C260.97 31.7228 261.611 31.2971 261.924 30.4457H263.729C263.495 31.2678 263.054 31.9235 262.408 32.4128C261.762 32.8923 260.96 33.1321 260.001 33.1321C259.228 33.1321 258.542 32.9609 257.946 32.6183C257.349 32.266 256.879 31.7767 256.536 31.1503C256.203 30.5142 256.037 29.7802 256.037 28.9483ZM268.906 33.1321C268.142 33.1321 267.452 32.9609 266.836 32.6183C266.219 32.266 265.735 31.7767 265.383 31.1503C265.03 30.5142 264.854 29.7802 264.854 28.9483C264.854 28.1262 265.035 27.3971 265.397 26.761C265.759 26.1249 266.254 25.6355 266.88 25.293C267.506 24.9505 268.206 24.7792 268.979 24.7792C269.752 24.7792 270.452 24.9505 271.078 25.293C271.705 25.6355 272.199 26.1249 272.561 26.761C272.923 27.3971 273.104 28.1262 273.104 28.9483C273.104 29.7704 272.918 30.4995 272.546 31.1356C272.174 31.7718 271.666 32.266 271.02 32.6183C270.384 32.9609 269.679 33.1321 268.906 33.1321ZM268.906 31.6788C269.336 31.6788 269.738 31.576 270.109 31.3705C270.491 31.165 270.799 30.8567 271.034 30.4457C271.269 30.0346 271.387 29.5355 271.387 28.9483C271.387 28.3611 271.274 27.8669 271.049 27.4656C270.824 27.0546 270.525 26.7463 270.154 26.5408C269.782 26.3353 269.38 26.2325 268.95 26.2325C268.519 26.2325 268.118 26.3353 267.746 26.5408C267.384 26.7463 267.095 27.0546 266.88 27.4656C266.665 27.8669 266.557 28.3611 266.557 28.9483C266.557 29.8193 266.777 30.4946 267.218 30.9742C267.668 31.4439 268.23 31.6788 268.906 31.6788ZM276.432 22.1368V33H274.759V22.1368H276.432ZM282.138 33.1321C281.374 33.1321 280.684 32.9609 280.068 32.6183C279.451 32.266 278.967 31.7767 278.615 31.1503C278.262 30.5142 278.086 29.7802 278.086 28.9483C278.086 28.1262 278.267 27.3971 278.629 26.761C278.991 26.1249 279.486 25.6355 280.112 25.293C280.738 24.9505 281.438 24.7792 282.211 24.7792C282.984 24.7792 283.684 24.9505 284.31 25.293C284.937 25.6355 285.431 26.1249 285.793 26.761C286.155 27.3971 286.336 28.1262 286.336 28.9483C286.336 29.7704 286.15 30.4995 285.778 31.1356C285.407 31.7718 284.898 32.266 284.252 32.6183C283.616 32.9609 282.911 33.1321 282.138 33.1321ZM282.138 31.6788C282.568 31.6788 282.97 31.576 283.342 31.3705C283.723 31.165 284.032 30.8567 284.266 30.4457C284.501 30.0346 284.619 29.5355 284.619 28.9483C284.619 28.3611 284.506 27.8669 284.281 27.4656C284.056 27.0546 283.758 26.7463 283.386 26.5408C283.014 26.3353 282.612 26.2325 282.182 26.2325C281.751 26.2325 281.35 26.3353 280.978 26.5408C280.616 26.7463 280.327 27.0546 280.112 27.4656C279.897 27.8669 279.789 28.3611 279.789 28.9483C279.789 29.8193 280.009 30.4946 280.45 30.9742C280.9 31.4439 281.463 31.6788 282.138 31.6788ZM289.664 26.0857C289.909 25.6747 290.232 25.3566 290.633 25.1315C291.044 24.8966 291.529 24.7792 292.086 24.7792V26.5114H291.661C291.005 26.5114 290.506 26.6778 290.163 27.0106C289.831 27.3433 289.664 27.9207 289.664 28.7428V33H287.991V24.9113H289.664V26.0857ZM296.561 33.1321C295.925 33.1321 295.352 33.0196 294.843 32.7945C294.344 32.5596 293.948 32.2464 293.654 31.855C293.36 31.4537 293.204 31.0084 293.184 30.5191H294.917C294.946 30.8616 295.107 31.1503 295.401 31.3852C295.704 31.6103 296.081 31.7228 296.531 31.7228C297.001 31.7228 297.363 31.6348 297.618 31.4586C297.882 31.2727 298.014 31.0378 298.014 30.754C298.014 30.4506 297.867 30.2255 297.574 30.0787C297.29 29.9319 296.835 29.7704 296.208 29.5942C295.602 29.4279 295.107 29.2664 294.726 29.1098C294.344 28.9532 294.011 28.7134 293.727 28.3905C293.453 28.0675 293.316 27.6418 293.316 27.1133C293.316 26.6827 293.444 26.2912 293.698 25.9389C293.953 25.5768 294.315 25.293 294.784 25.0875C295.264 24.882 295.812 24.7792 296.429 24.7792C297.349 24.7792 298.087 25.0141 298.645 25.4838C299.213 25.9438 299.516 26.5751 299.555 27.3776H297.882C297.853 27.0155 297.706 26.7267 297.441 26.5114C297.177 26.2961 296.82 26.1885 296.37 26.1885C295.929 26.1885 295.592 26.2717 295.357 26.438C295.122 26.6044 295.005 26.8246 295.005 27.0986C295.005 27.3139 295.083 27.495 295.239 27.6418C295.396 27.7886 295.587 27.906 295.812 27.9941C296.037 28.0724 296.37 28.1752 296.81 28.3024C297.397 28.459 297.877 28.6205 298.249 28.7868C298.631 28.9434 298.958 29.1783 299.232 29.4915C299.506 29.8047 299.648 30.2206 299.658 30.7393C299.658 31.1993 299.531 31.6103 299.276 31.9724C299.022 32.3345 298.66 32.6183 298.19 32.8238C297.73 33.0294 297.187 33.1321 296.561 33.1321Z" fill="#0A1A3D"/>
<g filter="url(#filter0_i_1043_72997)">
<rect y="42" width="375" height="6" rx="3" fill="url(#paint1_linear_1043_72997)"/>
</g>
<path d="M338.729 25.4678C339.713 24.5192 340.569 23.514 341.332 22.45L341.336 22.4443L341.336 22.4444C343.793 19.1169 345.796 15.6121 347.836 12.0403C348.222 11.3653 348.609 10.688 349.001 10.0091C348.9 9.91676 348.802 9.81335 348.73 9.70259L348.655 9.58773L348.651 9.50597C348.648 9.49781 348.643 9.48752 348.637 9.47419C348.631 9.46127 348.623 9.44369 348.615 9.42375C348.612 9.42199 348.61 9.42023 348.607 9.41848C348.473 9.3227 348.366 9.24704 348.257 9.1789C347.497 9.39485 346.803 9.06382 346.437 8.55419C346.25 8.29348 346.135 7.96819 346.156 7.62616C346.177 7.27465 346.339 6.94074 346.642 6.68519L338.729 25.4678ZM338.729 25.4678C337.166 23.6097 335.184 21.6662 332.887 20.2729C330.414 18.7732 327.55 17.8953 324.453 18.486L324.45 18.4866C322.449 18.881 321.135 19.6401 320.435 20.6848C319.727 21.7402 319.716 22.9781 320.088 24.1612C320.819 26.4923 323.092 28.8452 325.247 29.9902C327.767 31.3746 330.114 32.0005 332.371 31.8813C334.483 31.7696 336.473 31.0068 338.411 29.6732C340.227 32.1422 341.458 34.8262 341.401 37.4662L341.401 37.4662L341.401 37.4783C341.405 39.1482 340.969 40.4589 340.243 41.4723C339.514 42.4887 338.47 43.2372 337.212 43.7415C334.83 44.6961 331.726 44.7541 328.762 44.1213C329.463 42.0777 329.579 39.8075 328.935 37.8317C328.323 35.782 326.158 34.0233 323.744 33.1296C321.317 32.231 318.435 32.1309 316.323 33.6593L316.323 33.6593L316.317 33.6635C315.779 34.0649 315.421 34.549 315.238 35.0985C315.057 35.6439 315.061 36.2177 315.184 36.7849C315.427 37.9038 316.152 39.0674 317.027 40.1302C318.776 42.2563 321.301 44.1887 322.567 44.8489C323.08 45.1379 323.655 45.41 324.243 45.6516C323.336 46.868 322.364 47.5158 321.397 47.7851C320.358 48.0745 319.262 47.9439 318.163 47.5121C315.949 46.642 313.835 44.5902 312.464 42.6795C312.283 42.4091 312.021 42.2528 311.736 42.2108C311.462 42.1704 311.196 42.2397 310.984 42.3608C310.583 42.5897 310.186 43.1542 310.509 43.7832L310.514 43.794L310.52 43.8044C311.719 45.886 313.512 48.1663 315.783 49.5301C318.084 50.9113 320.872 51.3443 323.945 49.7053L323.945 49.7053L323.953 49.7012C325.283 48.9627 326.441 47.9403 327.265 46.7C332.488 48.1121 338.559 47.8117 342.242 43.5873L342.242 43.5873C344.522 40.9715 344.839 38.0542 344.176 35.2501C343.554 32.6202 342.07 30.0744 340.544 27.9087C345.035 23.8658 347.925 18.5211 350.63 13.5185C350.946 12.9337 351.259 12.3535 351.573 11.7806C351.78 11.8884 351.99 11.9938 352.196 12.097L352.202 12.1C352.565 12.2818 352.914 12.4569 353.232 12.6367L353.252 12.6477L353.272 12.657C353.94 12.9586 354.795 12.8194 355.313 12.3433L355.328 12.3297L355.342 12.3149C357.984 9.46242 359.982 6.05579 360.496 2.34854C360.669 1.66591 360.338 1.08697 359.818 0.788405C359.308 0.495735 358.624 0.463049 357.99 0.743265C355.957 1.62229 354.005 2.59787 352.06 3.6308C351.772 3.77214 351.47 3.91617 351.16 4.06412C349.63 4.79402 347.9 5.61914 346.642 6.68465C346.642 6.68447 346.643 6.68429 346.643 6.68411L338.729 25.4678ZM334.718 28.5369L334.716 28.5378C333.12 29.4011 331.475 29.3897 329.873 28.9164C328.26 28.4396 326.717 27.4999 325.375 26.5423L325.374 26.5419C323.685 25.3418 323.151 23.8112 323.475 22.7591C323.783 21.7606 324.991 20.85 327.571 21.1518C330.072 21.4855 332.15 23.2394 334.006 24.8057C334.054 24.8469 334.103 24.888 334.151 24.9289C334.98 25.6337 335.83 26.4569 336.606 27.3488C336.007 27.7931 335.365 28.19 334.718 28.5369ZM318.732 36.4181L318.727 36.4026L318.721 36.3874C318.611 36.1097 318.605 35.9369 318.623 35.8383C318.64 35.7535 318.68 35.6875 318.766 35.6242C318.979 35.4678 319.417 35.3697 320.06 35.3762C321.301 35.3887 322.849 35.7784 323.48 36.0155C325.136 36.7036 325.911 37.8869 326.16 39.2324C326.386 40.4593 326.175 41.8421 325.722 43.1124C323.458 42.1533 321.711 40.7695 320.269 39.0421C319.605 38.2274 319.036 37.3646 318.732 36.4181ZM353.167 6.58193C354.113 6.06632 355.113 5.55888 356.131 5.05138C355.595 6.46463 354.782 7.85875 353.755 9.15389C353.587 8.98554 353.369 8.85877 353.141 8.77399L353.131 8.77048L353.122 8.76735C352.492 8.56247 351.832 8.29914 351.161 8.01186C351.096 7.9775 351.017 7.92692 350.924 7.86579C351.147 7.73696 351.368 7.6058 351.587 7.47598L351.657 7.43489C352.162 7.13527 352.657 6.84386 353.156 6.58777L353.156 6.58791L353.167 6.58193ZM350.434 8.14285C350.486 8.11437 350.538 8.08563 350.589 8.05667C350.585 8.10039 350.574 8.15612 350.545 8.21527C350.508 8.19044 350.47 8.166 350.434 8.14285Z" fill="#FFB400" stroke="black"/>
<defs>
<filter id="filter0_i_1043_72997" x="0" y="42" width="375" height="6" filterUnits="userSpaceOnUse" color-interpolation-filters="sRGB">
<feFlood flood-opacity="0" result="BackgroundImageFix"/>
<feBlend mode="normal" in="SourceGraphic" in2="BackgroundImageFix" result="shape"/>
<feColorMatrix in="SourceAlpha" type="matrix" values="0 0 0 0 0 0 0 0 0 0 0 0 0 0 0 0 0 0 127 0" result="hardAlpha"/>
<feMorphology radius="1" operator="erode" in="SourceAlpha" result="effect1_innerShadow_1043_72997"/>
<feOffset/>
<feGaussianBlur stdDeviation="0.5"/>
<feComposite in2="hardAlpha" operator="arithmetic" k2="-1" k3="1"/>
<feColorMatrix type="matrix" values="0 0 0 0 0 0 0 0 0 0 0 0 0 0 0 0 0 0 0.2 0"/>
<feBlend mode="normal" in2="shape" result="effect1_innerShadow_1043_72997"/>
</filter>
<linearGradient id="paint0_linear_1043_72997" x1="0" y1="9" x2="8.63914" y2="88.1634" gradientUnits="userSpaceOnUse">
<stop stop-color="#FBE5FF"/>
<stop offset="1" stop-color="#F3BAFD"/>
</linearGradient>
<linearGradient id="paint1_linear_1043_72997" x1="0" y1="45" x2="375" y2="45" gradientUnits="userSpaceOnUse">
<stop stop-color="#FF0000"/>
<stop offset="0.142857" stop-color="#FFA500"/>
<stop offset="0.285714" stop-color="#FFFF00"/>
<stop offset="0.428571" stop-color="#ADFF2F"/>
<stop offset="0.571429" stop-color="#32CD32"/>
<stop offset="0.714286" stop-color="#00BFFF"/>
<stop offset="0.857143" stop-color="#0000FF"/>
<stop offset="0.95" stop-color="#9400D3"/>
</linearGradient>
</defs>
</svg>
