<svg width="269" height="83" viewBox="0 0 269 83" fill="none" xmlns="http://www.w3.org/2000/svg">
<path d="M5.33055 9.35633H6.96692C6.93408 9.89266 6.78632 10.3688 6.52362 10.7847C6.26457 11.2007 5.90154 11.5254 5.43453 11.7589C4.97116 11.9924 4.41294 12.1092 3.75985 12.1092C3.24905 12.1092 2.79116 12.0216 2.38617 11.8465C1.98118 11.6677 1.63457 11.4123 1.34633 11.0803C1.06175 10.7482 0.844659 10.3469 0.695069 9.87625C0.545479 9.40558 0.470683 8.87837 0.470683 8.2946V7.74185C0.470683 7.15808 0.547303 6.63086 0.700542 6.1602C0.857429 5.68589 1.07999 5.28273 1.36822 4.95071C1.66011 4.61869 2.00854 4.36329 2.41353 4.18451C2.81852 4.00574 3.27094 3.91635 3.77079 3.91635C4.43483 3.91635 4.99488 4.03675 5.45095 4.27755C5.91066 4.51836 6.2664 4.85037 6.51815 5.27361C6.77355 5.69684 6.92678 6.17844 6.97786 6.71843H5.33602C5.31778 6.39736 5.25393 6.12554 5.14447 5.90298C5.03501 5.67677 4.869 5.50711 4.64644 5.39401C4.42753 5.27725 4.13565 5.21888 3.77079 5.21888C3.49715 5.21888 3.25817 5.26996 3.05385 5.37212C2.84953 5.47428 2.67805 5.62934 2.53941 5.83731C2.40076 6.04527 2.29678 6.30797 2.22746 6.62539C2.16178 6.93917 2.12895 7.30767 2.12895 7.7309V8.2946C2.12895 8.70689 2.15996 9.06992 2.22198 9.38369C2.28401 9.69382 2.37887 9.95651 2.50657 10.1718C2.63792 10.3834 2.80575 10.5439 3.01007 10.6534C3.21804 10.7592 3.46796 10.8121 3.75985 10.8121C4.10281 10.8121 4.38557 10.7574 4.60813 10.6479C4.8307 10.5385 5.00035 10.3761 5.11711 10.1608C5.23751 9.94557 5.30865 9.6774 5.33055 9.35633ZM7.6948 9.09911V8.98418C7.6948 8.55 7.75683 8.15048 7.88088 7.78563C8.00493 7.41713 8.18553 7.09788 8.42269 6.82789C8.65984 6.55789 8.95173 6.3481 9.29834 6.19851C9.64495 6.04527 10.0426 5.96865 10.4914 5.96865C10.9402 5.96865 11.3397 6.04527 11.6899 6.19851C12.0402 6.3481 12.3339 6.55789 12.5711 6.82789C12.8119 7.09788 12.9943 7.41713 13.1183 7.78563C13.2424 8.15048 13.3044 8.55 13.3044 8.98418V9.09911C13.3044 9.52963 13.2424 9.92915 13.1183 10.2977C12.9943 10.6625 12.8119 10.9818 12.5711 11.2554C12.3339 11.5254 12.042 11.7352 11.6954 11.8848C11.3488 12.0344 10.9511 12.1092 10.5023 12.1092C10.0536 12.1092 9.65407 12.0344 9.30381 11.8848C8.9572 11.7352 8.66349 11.5254 8.42269 11.2554C8.18553 10.9818 8.00493 10.6625 7.88088 10.2977C7.75683 9.92915 7.6948 9.52963 7.6948 9.09911ZM9.27098 8.98418V9.09911C9.27098 9.34721 9.29287 9.57889 9.33665 9.79415C9.38043 10.0094 9.44975 10.1991 9.54462 10.3633C9.64313 10.5239 9.77083 10.6497 9.92771 10.741C10.0846 10.8322 10.2761 10.8778 10.5023 10.8778C10.7213 10.8778 10.9092 10.8322 11.066 10.741C11.2229 10.6497 11.3488 10.5239 11.4437 10.3633C11.5385 10.1991 11.6078 10.0094 11.6516 9.79415C11.6991 9.57889 11.7228 9.34721 11.7228 9.09911V8.98418C11.7228 8.74337 11.6991 8.51716 11.6516 8.30555C11.6078 8.09028 11.5367 7.90056 11.4382 7.73637C11.3433 7.56854 11.2175 7.43719 11.0606 7.34233C10.9037 7.24747 10.714 7.20004 10.4914 7.20004C10.2688 7.20004 10.0791 7.24747 9.92224 7.34233C9.769 7.43719 9.64313 7.56854 9.54462 7.73637C9.44975 7.90056 9.38043 8.09028 9.33665 8.30555C9.29287 8.51716 9.27098 8.74337 9.27098 8.98418ZM15.8164 7.34233V11.9997H14.2403V6.07811H15.7179L15.8164 7.34233ZM15.5866 8.83094H15.1597C15.1597 8.39311 15.2163 7.99907 15.3294 7.64881C15.4425 7.2949 15.6012 6.99389 15.8055 6.74579C16.0098 6.49404 16.2524 6.3025 16.5334 6.17115C16.818 6.03615 17.1354 5.96865 17.4857 5.96865C17.7629 5.96865 18.0165 6.00879 18.2464 6.08906C18.4762 6.16932 18.6733 6.29702 18.8374 6.47215C19.0053 6.64728 19.133 6.87897 19.2205 7.1672C19.3118 7.45544 19.3574 7.80752 19.3574 8.22345V11.9997H17.7702V8.21798C17.7702 7.95529 17.7338 7.75097 17.6608 7.60503C17.5878 7.45908 17.4802 7.35692 17.3379 7.29855C17.1992 7.23652 17.0278 7.20551 16.8234 7.20551C16.6118 7.20551 16.4276 7.24747 16.2707 7.33139C16.1175 7.4153 15.9898 7.53206 15.8876 7.68165C15.7891 7.82759 15.7143 7.99907 15.6632 8.19609C15.6121 8.39311 15.5866 8.60473 15.5866 8.83094ZM23.4565 6.07811V7.19456H20.0086V6.07811H23.4565ZM20.8624 4.61687H22.4386V10.2156C22.4386 10.387 22.4604 10.5184 22.5042 10.6096C22.5517 10.7008 22.621 10.7647 22.7122 10.8012C22.8034 10.834 22.9183 10.8504 23.057 10.8504C23.1555 10.8504 23.2431 10.8468 23.3197 10.8395C23.4 10.8285 23.4674 10.8176 23.5222 10.8066L23.5276 11.9669C23.3927 12.0106 23.2467 12.0453 23.0898 12.0708C22.9329 12.0964 22.7596 12.1092 22.5699 12.1092C22.2233 12.1092 21.9205 12.0526 21.6614 11.9395C21.406 11.8227 21.209 11.6367 21.0704 11.3813C20.9317 11.1259 20.8624 10.7902 20.8624 10.3743V4.61687ZM27.5502 10.6643V8.02643C27.5502 7.83671 27.5192 7.67435 27.4571 7.53935C27.3951 7.40071 27.2984 7.29308 27.1671 7.21646C27.0394 7.13984 26.8734 7.10153 26.669 7.10153C26.4939 7.10153 26.3425 7.13254 26.2148 7.19456C26.0871 7.25294 25.9886 7.33868 25.9193 7.45179C25.85 7.56124 25.8153 7.69077 25.8153 7.84036H24.2391C24.2391 7.58861 24.2975 7.34963 24.4142 7.12342C24.531 6.89721 24.7007 6.69836 24.9232 6.52688C25.1458 6.35175 25.4103 6.21493 25.7168 6.11642C26.0269 6.01791 26.3735 5.96865 26.7566 5.96865C27.2163 5.96865 27.625 6.04527 27.9825 6.19851C28.3401 6.35175 28.621 6.58161 28.8253 6.88809C29.0333 7.19456 29.1373 7.57766 29.1373 8.03738V10.5713C29.1373 10.896 29.1574 11.1624 29.1975 11.3703C29.2376 11.5746 29.296 11.7534 29.3726 11.9067V11.9997H27.78C27.7034 11.8392 27.645 11.6385 27.6049 11.3977C27.5684 11.1532 27.5502 10.9088 27.5502 10.6643ZM27.7581 8.39311L27.7691 9.28518H26.888C26.68 9.28518 26.4994 9.3089 26.3462 9.35633C26.1929 9.40376 26.067 9.47126 25.9685 9.55882C25.87 9.64274 25.797 9.74125 25.7496 9.85435C25.7058 9.96746 25.6839 10.0915 25.6839 10.2265C25.6839 10.3615 25.715 10.4837 25.777 10.5932C25.839 10.699 25.9284 10.7829 26.0451 10.8449C26.1619 10.9033 26.2987 10.9325 26.4556 10.9325C26.6928 10.9325 26.8989 10.8851 27.074 10.7902C27.2492 10.6953 27.3842 10.5786 27.479 10.4399C27.5775 10.3013 27.6286 10.17 27.6323 10.0459L28.0482 10.7136C27.9898 10.8632 27.9096 11.0182 27.8074 11.1788C27.7089 11.3393 27.583 11.4907 27.4298 11.633C27.2765 11.7717 27.0923 11.8866 26.877 11.9778C26.6618 12.0654 26.4064 12.1092 26.1108 12.1092C25.735 12.1092 25.3939 12.0344 25.0874 11.8848C24.7846 11.7315 24.5438 11.5217 24.365 11.2554C24.1899 10.9854 24.1023 10.6789 24.1023 10.336C24.1023 10.0258 24.1607 9.75037 24.2774 9.50957C24.3942 9.26876 24.5657 9.06627 24.7919 8.90208C25.0217 8.73425 25.3081 8.60838 25.6511 8.52446C25.9941 8.43689 26.3918 8.39311 26.8442 8.39311H27.7581ZM32.7986 10.8778C32.992 10.8778 33.1635 10.8413 33.3131 10.7683C33.4626 10.6917 33.5794 10.5859 33.6633 10.4509C33.7509 10.3122 33.7965 10.1499 33.8001 9.96381H35.2833C35.2796 10.3797 35.1683 10.7501 34.9494 11.0748C34.7305 11.3959 34.4368 11.6494 34.0683 11.8355C33.6998 12.0179 33.2875 12.1092 32.8314 12.1092C32.3717 12.1092 31.9704 12.0325 31.6274 11.8793C31.2881 11.7261 31.0053 11.5144 30.7791 11.2445C30.5529 10.9708 30.3833 10.6534 30.2702 10.2922C30.1571 9.92733 30.1005 9.53693 30.1005 9.121V8.96229C30.1005 8.5427 30.1571 8.15231 30.2702 7.7911C30.3833 7.42625 30.5529 7.10882 30.7791 6.83883C31.0053 6.56519 31.2881 6.35175 31.6274 6.19851C31.9667 6.04527 32.3644 5.96865 32.8205 5.96865C33.3058 5.96865 33.7308 6.06169 34.0957 6.24777C34.4642 6.43384 34.7524 6.70019 34.9604 7.0468C35.172 7.38976 35.2796 7.79657 35.2833 8.26724H33.8001C33.7965 8.07022 33.7545 7.89144 33.6743 7.7309C33.5976 7.57036 33.4845 7.44267 33.3349 7.3478C33.189 7.24929 33.0084 7.20004 32.7931 7.20004C32.5633 7.20004 32.3754 7.24929 32.2294 7.3478C32.0835 7.44267 31.9704 7.57401 31.8901 7.74185C31.8098 7.90603 31.7533 8.09393 31.7205 8.30555C31.6913 8.51351 31.6767 8.73243 31.6767 8.96229V9.121C31.6767 9.35086 31.6913 9.57159 31.7205 9.78321C31.7496 9.99482 31.8044 10.1827 31.8846 10.3469C31.9686 10.5111 32.0835 10.6406 32.2294 10.7355C32.3754 10.8303 32.5651 10.8778 32.7986 10.8778ZM39.0978 6.07811V7.19456H35.6499V6.07811H39.0978ZM36.5037 4.61687H38.0799V10.2156C38.0799 10.387 38.1018 10.5184 38.1455 10.6096C38.193 10.7008 38.2623 10.7647 38.3535 10.8012C38.4447 10.834 38.5597 10.8504 38.6983 10.8504C38.7968 10.8504 38.8844 10.8468 38.961 10.8395C39.0413 10.8285 39.1088 10.8176 39.1635 10.8066L39.169 11.9669C39.034 12.0106 38.888 12.0453 38.7311 12.0708C38.5743 12.0964 38.4009 12.1092 38.2112 12.1092C37.8646 12.1092 37.5618 12.0526 37.3027 11.9395C37.0473 11.8227 36.8503 11.6367 36.7117 11.3813C36.573 11.1259 36.5037 10.7902 36.5037 10.3743V4.61687ZM46.2891 10.5822V6.07811H47.8653V11.9997H46.3821L46.2891 10.5822ZM46.4642 9.36727L46.9294 9.35633C46.9294 9.75037 46.8838 10.1171 46.7926 10.4564C46.7014 10.792 46.5646 11.0839 46.3821 11.332C46.1997 11.5765 45.9699 11.768 45.6926 11.9067C45.4153 12.0417 45.0887 12.1092 44.7129 12.1092C44.4247 12.1092 44.1584 12.069 43.9139 11.9888C43.6731 11.9048 43.4651 11.7753 43.29 11.6002C43.1185 11.4214 42.9835 11.1934 42.885 10.9161C42.7902 10.6351 42.7427 10.2977 42.7427 9.90361V6.07811H44.3189V9.91456C44.3189 10.0897 44.339 10.2375 44.3791 10.3579C44.4229 10.4783 44.4831 10.5768 44.5597 10.6534C44.6363 10.73 44.7257 10.7847 44.8279 10.8176C44.9337 10.8504 45.0504 10.8668 45.1781 10.8668C45.5028 10.8668 45.7582 10.8012 45.9443 10.6698C46.134 10.5385 46.2672 10.3597 46.3438 10.1335C46.4241 9.90361 46.4642 9.64821 46.4642 9.36727ZM52.2709 10.3633C52.2709 10.2502 52.2381 10.1481 52.1724 10.0568C52.1067 9.96564 51.9845 9.88172 51.8057 9.8051C51.6306 9.72483 51.377 9.65186 51.045 9.58619C50.7458 9.52051 50.4667 9.43842 50.2076 9.33991C49.9522 9.23775 49.7297 9.11552 49.54 8.97323C49.3539 8.83094 49.2079 8.6631 49.1021 8.46973C48.9963 8.27271 48.9434 8.04832 48.9434 7.79657C48.9434 7.54847 48.9963 7.31497 49.1021 7.09605C49.2116 6.87714 49.3667 6.68377 49.5673 6.51594C49.7716 6.34445 50.0197 6.21128 50.3116 6.11642C50.6072 6.01791 50.9392 5.96865 51.3077 5.96865C51.8221 5.96865 52.2636 6.05075 52.6321 6.21493C53.0043 6.37911 53.2888 6.60532 53.4859 6.89356C53.6865 7.17815 53.7869 7.50287 53.7869 7.86772H52.2107C52.2107 7.71448 52.1779 7.57766 52.1122 7.45726C52.0502 7.33321 51.9516 7.23652 51.8167 7.1672C51.6853 7.09423 51.5138 7.05774 51.3022 7.05774C51.1271 7.05774 50.9757 7.08876 50.848 7.15078C50.7203 7.20916 50.6218 7.28943 50.5524 7.39159C50.4868 7.4901 50.4539 7.59955 50.4539 7.71996C50.4539 7.81117 50.4722 7.89326 50.5086 7.96623C50.5488 8.03555 50.6126 8.0994 50.7002 8.15778C50.7878 8.21616 50.9009 8.27089 51.0395 8.32197C51.1818 8.3694 51.3569 8.41318 51.5649 8.45331C51.9918 8.54088 52.3731 8.65581 52.7087 8.7981C53.0444 8.93675 53.3107 9.12647 53.5078 9.36727C53.7048 9.60443 53.8033 9.91638 53.8033 10.3031C53.8033 10.5658 53.7449 10.8066 53.6282 11.0255C53.5114 11.2445 53.3436 11.436 53.1247 11.6002C52.9057 11.7607 52.643 11.8866 52.3366 11.9778C52.0337 12.0654 51.6926 12.1092 51.3132 12.1092C50.7622 12.1092 50.2952 12.0106 49.9121 11.8136C49.5327 11.6166 49.2444 11.3667 49.0474 11.0638C48.854 10.7574 48.7573 10.4436 48.7573 10.1225H50.2514C50.2587 10.3378 50.3135 10.5111 50.4156 10.6424C50.5214 10.7738 50.6546 10.8687 50.8151 10.927C50.9793 10.9854 51.1563 11.0146 51.346 11.0146C51.5503 11.0146 51.72 10.9872 51.855 10.9325C51.99 10.8741 52.0921 10.7975 52.1614 10.7026C52.2344 10.6041 52.2709 10.491 52.2709 10.3633ZM59.2761 11.9997H58.2636V5.45421C58.2636 5.02733 58.3403 4.66795 58.4935 4.37606C58.6504 4.08053 58.8748 3.85797 59.1667 3.70838C59.4585 3.55514 59.8051 3.47852 60.2065 3.47852C60.3232 3.47852 60.44 3.48582 60.5567 3.50041C60.6771 3.51501 60.7939 3.5369 60.907 3.56609L60.8523 4.39248C60.7757 4.37424 60.6881 4.36147 60.5896 4.35417C60.4947 4.34687 60.3999 4.34323 60.305 4.34323C60.0897 4.34323 59.9037 4.38701 59.7468 4.47457C59.5935 4.55849 59.4768 4.68254 59.3965 4.84673C59.3162 5.01091 59.2761 5.2134 59.2761 5.45421V11.9997ZM60.5349 6.07811V6.85525H57.3278V6.07811H60.5349ZM61.3941 9.10458V8.9787C61.3941 8.55182 61.4561 8.15596 61.5802 7.7911C61.7042 7.4226 61.883 7.10335 62.1165 6.83336C62.35 6.55972 62.6328 6.3481 62.9648 6.19851C63.2968 6.04527 63.669 5.96865 64.0812 5.96865C64.4972 5.96865 64.8712 6.04527 65.2032 6.19851C65.5388 6.3481 65.8234 6.55972 66.0569 6.83336C66.2941 7.10335 66.4747 7.4226 66.5987 7.7911C66.7228 8.15596 66.7848 8.55182 66.7848 8.9787V9.10458C66.7848 9.53146 66.7228 9.92733 66.5987 10.2922C66.4747 10.657 66.2941 10.9763 66.0569 11.2499C65.8234 11.5199 65.5407 11.7315 65.2086 11.8848C64.8803 12.0344 64.5081 12.1092 64.0922 12.1092C63.6763 12.1092 63.3023 12.0344 62.9703 11.8848C62.6382 11.7315 62.3537 11.5199 62.1165 11.2499C61.883 10.9763 61.7042 10.657 61.5802 10.2922C61.4561 9.92733 61.3941 9.53146 61.3941 9.10458ZM62.4066 8.9787V9.10458C62.4066 9.40011 62.4412 9.67922 62.5105 9.94192C62.5799 10.201 62.6838 10.4308 62.8225 10.6315C62.9648 10.8322 63.1417 10.9909 63.3534 11.1076C63.565 11.2207 63.8112 11.2773 64.0922 11.2773C64.3695 11.2773 64.6121 11.2207 64.8201 11.1076C65.0317 10.9909 65.2068 10.8322 65.3455 10.6315C65.4841 10.4308 65.5881 10.201 65.6574 9.94192C65.7304 9.67922 65.7669 9.40011 65.7669 9.10458V8.9787C65.7669 8.68682 65.7304 8.41135 65.6574 8.15231C65.5881 7.88961 65.4823 7.65793 65.34 7.45726C65.2013 7.25294 65.0262 7.09241 64.8146 6.97565C64.6066 6.8589 64.3622 6.80052 64.0812 6.80052C63.804 6.80052 63.5595 6.8589 63.3479 6.97565C63.1399 7.09241 62.9648 7.25294 62.8225 7.45726C62.6838 7.65793 62.5799 7.88961 62.5105 8.15231C62.4412 8.41135 62.4066 8.68682 62.4066 8.9787ZM69.067 7.00849V11.9997H68.0545V6.07811H69.0396L69.067 7.00849ZM70.9168 6.04527L70.9113 6.9866C70.8274 6.96835 70.7471 6.95741 70.6705 6.95376C70.5975 6.94646 70.5136 6.94281 70.4188 6.94281C70.1853 6.94281 69.9791 6.9793 69.8003 7.05227C69.6216 7.12524 69.4701 7.2274 69.3461 7.35875C69.222 7.4901 69.1235 7.64698 69.0506 7.82941C68.9812 8.00819 68.9356 8.20521 68.9137 8.42048L68.6292 8.58466C68.6292 8.2271 68.6638 7.89144 68.7331 7.57766C68.8061 7.26389 68.9174 6.9866 69.067 6.74579C69.2166 6.50134 69.4063 6.31162 69.6361 6.17662C69.8697 6.03798 70.1469 5.96865 70.468 5.96865C70.541 5.96865 70.6249 5.97777 70.7198 5.99602C70.8146 6.01061 70.8803 6.02703 70.9168 6.04527ZM77.0026 11.2773C77.2434 11.2773 77.4659 11.228 77.6703 11.1295C77.8746 11.031 78.0424 10.896 78.1737 10.7245C78.3051 10.5494 78.3799 10.3506 78.3981 10.128H79.3614C79.3431 10.4783 79.2245 10.8048 79.0056 11.1076C78.7904 11.4068 78.5076 11.6494 78.1573 11.8355C77.8071 12.0179 77.4221 12.1092 77.0026 12.1092C76.5574 12.1092 76.1689 12.0307 75.8369 11.8738C75.5085 11.7169 75.2348 11.5017 75.0159 11.228C74.8007 10.9544 74.6383 10.6406 74.5289 10.2867C74.423 9.92915 74.3701 9.55153 74.3701 9.15383V8.92398C74.3701 8.52628 74.423 8.15048 74.5289 7.79657C74.6383 7.43902 74.8007 7.12342 75.0159 6.84978C75.2348 6.57614 75.5085 6.36087 75.8369 6.20398C76.1689 6.0471 76.5574 5.96865 77.0026 5.96865C77.4659 5.96865 77.8709 6.06352 78.2175 6.25324C78.5641 6.43932 78.836 6.69471 79.033 7.01943C79.2337 7.34051 79.3431 7.70536 79.3614 8.114H78.3981C78.3799 7.86955 78.3106 7.64881 78.1902 7.45179C78.0734 7.25477 77.9129 7.09788 77.7086 6.98112C77.5079 6.86072 77.2726 6.80052 77.0026 6.80052C76.6924 6.80052 76.4316 6.86255 76.22 6.9866C76.012 7.107 75.846 7.27118 75.7219 7.47915C75.6015 7.68347 75.514 7.9115 75.4592 8.16325C75.4082 8.41135 75.3826 8.66493 75.3826 8.92398V9.15383C75.3826 9.41288 75.4082 9.66828 75.4592 9.92003C75.5103 10.1718 75.5961 10.3998 75.7165 10.6041C75.8405 10.8084 76.0065 10.9726 76.2145 11.0967C76.4261 11.2171 76.6888 11.2773 77.0026 11.2773ZM84.1227 10.6315V6.07811H85.1407V11.9997H84.172L84.1227 10.6315ZM84.3143 9.38369L84.7357 9.37275C84.7357 9.76679 84.6937 10.1316 84.6098 10.4673C84.5295 10.7993 84.3982 11.0876 84.2157 11.332C84.0333 11.5765 83.7943 11.768 83.4988 11.9067C83.2033 12.0417 82.8439 12.1092 82.4207 12.1092C82.1324 12.1092 81.8679 12.0672 81.6271 11.9833C81.3899 11.8994 81.1856 11.7698 81.0141 11.5947C80.8427 11.4196 80.7095 11.1915 80.6146 10.9106C80.5234 10.6297 80.4778 10.2922 80.4778 9.89814V6.07811H81.4903V9.90908C81.4903 10.1754 81.5195 10.3962 81.5778 10.5713C81.6399 10.7428 81.722 10.8796 81.8241 10.9818C81.9299 11.0803 82.0467 11.1496 82.1744 11.1897C82.3057 11.2299 82.4407 11.2499 82.5794 11.2499C83.0099 11.2499 83.351 11.1678 83.6028 11.0036C83.8545 10.8358 84.0351 10.6114 84.1446 10.3305C84.2577 10.0459 84.3143 9.7303 84.3143 9.38369ZM90.1319 10.429C90.1319 10.2831 90.099 10.1481 90.0333 10.024C89.9713 9.89631 89.8418 9.78138 89.6448 9.67922C89.4514 9.57342 89.1595 9.4822 88.7691 9.40558C88.4408 9.33626 88.1434 9.25417 87.8771 9.15931C87.6144 9.06444 87.39 8.94952 87.2039 8.81452C87.0215 8.67952 86.881 8.52081 86.7825 8.33838C86.684 8.15596 86.6347 7.94252 86.6347 7.69806C86.6347 7.46456 86.6858 7.24382 86.788 7.03585C86.8938 6.82789 87.0415 6.64363 87.2313 6.4831C87.4246 6.32256 87.6563 6.19669 87.9263 6.10547C88.1963 6.01426 88.4973 5.96865 88.8293 5.96865C89.3036 5.96865 89.7086 6.05257 90.0443 6.2204C90.38 6.38824 90.6372 6.61262 90.816 6.89356C90.9947 7.17085 91.0841 7.47915 91.0841 7.81847H90.0717C90.0717 7.65428 90.0224 7.49557 89.9239 7.34233C89.829 7.18544 89.6886 7.05592 89.5025 6.95376C89.3201 6.8516 89.0957 6.80052 88.8293 6.80052C88.5484 6.80052 88.3204 6.8443 88.1452 6.93187C87.9737 7.01579 87.8479 7.12342 87.7676 7.25477C87.691 7.38611 87.6527 7.52476 87.6527 7.6707C87.6527 7.78016 87.6709 7.87867 87.7074 7.96623C87.7475 8.05015 87.8169 8.12859 87.9154 8.20156C88.0139 8.27089 88.1525 8.33656 88.3313 8.39858C88.5101 8.46061 88.7381 8.52264 89.0154 8.58466C89.5007 8.69412 89.9002 8.82546 90.214 8.9787C90.5277 9.13194 90.7612 9.31984 90.9145 9.5424C91.0677 9.76497 91.1443 10.035 91.1443 10.3524C91.1443 10.6114 91.0896 10.8486 90.9801 11.0638C90.8743 11.2791 90.7193 11.4652 90.515 11.6221C90.3143 11.7753 90.0735 11.8957 89.7925 11.9833C89.5153 12.0672 89.2033 12.1092 88.8567 12.1092C88.335 12.1092 87.8935 12.0161 87.5323 11.83C87.1711 11.644 86.8974 11.4032 86.7113 11.1076C86.5253 10.8121 86.4322 10.5001 86.4322 10.1718H87.4502C87.4648 10.4491 87.545 10.6698 87.691 10.834C87.8369 10.9945 88.0157 11.1095 88.2273 11.1788C88.4389 11.2445 88.6487 11.2773 88.8567 11.2773C89.134 11.2773 89.3657 11.2408 89.5517 11.1678C89.7415 11.0949 89.8856 10.9945 89.9841 10.8668C90.0826 10.7391 90.1319 10.5932 90.1319 10.429ZM94.9534 6.07811V6.85525H91.7518V6.07811H94.9534ZM92.8354 4.63876H93.8479V10.533C93.8479 10.7337 93.8789 10.8851 93.9409 10.9872C94.003 11.0894 94.0832 11.1569 94.1817 11.1897C94.2803 11.2226 94.3861 11.239 94.4992 11.239C94.5831 11.239 94.6707 11.2317 94.7619 11.2171C94.8567 11.1988 94.9279 11.1842 94.9753 11.1733L94.9808 11.9997C94.9005 12.0252 94.7947 12.049 94.6634 12.0708C94.5357 12.0964 94.3806 12.1092 94.1982 12.1092C93.9501 12.1092 93.722 12.0599 93.5141 11.9614C93.3061 11.8629 93.1401 11.6987 93.016 11.4688C92.8956 11.2353 92.8354 10.9216 92.8354 10.5275V4.63876ZM95.7634 9.10458V8.9787C95.7634 8.55182 95.8254 8.15596 95.9495 7.7911C96.0735 7.4226 96.2523 7.10335 96.4858 6.83336C96.7193 6.55972 97.0021 6.3481 97.3341 6.19851C97.6661 6.04527 98.0383 5.96865 98.4505 5.96865C98.8665 5.96865 99.2405 6.04527 99.5725 6.19851C99.9081 6.3481 100.193 6.55972 100.426 6.83336C100.663 7.10335 100.844 7.4226 100.968 7.7911C101.092 8.15596 101.154 8.55182 101.154 8.9787V9.10458C101.154 9.53146 101.092 9.92733 100.968 10.2922C100.844 10.657 100.663 10.9763 100.426 11.2499C100.193 11.5199 99.91 11.7315 99.5779 11.8848C99.2496 12.0344 98.8774 12.1092 98.4615 12.1092C98.0456 12.1092 97.6716 12.0344 97.3396 11.8848C97.0075 11.7315 96.723 11.5199 96.4858 11.2499C96.2523 10.9763 96.0735 10.657 95.9495 10.2922C95.8254 9.92733 95.7634 9.53146 95.7634 9.10458ZM96.7759 8.9787V9.10458C96.7759 9.40011 96.8105 9.67922 96.8798 9.94192C96.9492 10.201 97.0532 10.4308 97.1918 10.6315C97.3341 10.8322 97.511 10.9909 97.7227 11.1076C97.9343 11.2207 98.1806 11.2773 98.4615 11.2773C98.7388 11.2773 98.9814 11.2207 99.1894 11.1076C99.401 10.9909 99.5761 10.8322 99.7148 10.6315C99.8534 10.4308 99.9574 10.201 100.027 9.94192C100.1 9.67922 100.136 9.40011 100.136 9.10458V8.9787C100.136 8.68682 100.1 8.41135 100.027 8.15231C99.9574 7.88961 99.8516 7.65793 99.7093 7.45726C99.5707 7.25294 99.3955 7.09241 99.1839 6.97565C98.9759 6.8589 98.7315 6.80052 98.4505 6.80052C98.1733 6.80052 97.9288 6.8589 97.7172 6.97565C97.5092 7.09241 97.3341 7.25294 97.1918 7.45726C97.0532 7.65793 96.9492 7.88961 96.8798 8.15231C96.8105 8.41135 96.7759 8.68682 96.7759 8.9787ZM103.431 7.25477V11.9997H102.413V6.07811H103.376L103.431 7.25477ZM103.223 8.81452L102.752 8.7981C102.756 8.39311 102.809 8.01914 102.911 7.67617C103.013 7.32956 103.164 7.02856 103.365 6.77316C103.566 6.51776 103.816 6.32074 104.115 6.18209C104.414 6.0398 104.761 5.96865 105.155 5.96865C105.432 5.96865 105.687 6.00879 105.921 6.08906C106.154 6.16567 106.357 6.2879 106.528 6.45573C106.7 6.62357 106.833 6.83883 106.928 7.10153C107.023 7.36422 107.07 7.68165 107.07 8.0538V11.9997H106.058V8.10305C106.058 7.79293 106.005 7.54483 105.899 7.35875C105.797 7.17267 105.651 7.03768 105.461 6.95376C105.272 6.8662 105.049 6.82241 104.794 6.82241C104.494 6.82241 104.244 6.87532 104.044 6.98112C103.843 7.08693 103.683 7.23287 103.562 7.41895C103.442 7.60503 103.354 7.81847 103.299 8.05927C103.248 8.29643 103.223 8.54818 103.223 8.81452ZM107.059 8.25629L106.381 8.46426C106.384 8.13954 106.437 7.82759 106.539 7.52841C106.645 7.22923 106.797 6.96288 106.994 6.72937C107.194 6.49587 107.441 6.31162 107.732 6.17662C108.024 6.03798 108.358 5.96865 108.734 5.96865C109.051 5.96865 109.332 6.01061 109.577 6.09453C109.825 6.17844 110.033 6.30797 110.201 6.4831C110.372 6.65458 110.502 6.87532 110.589 7.14531C110.677 7.4153 110.721 7.73637 110.721 8.10853V11.9997H109.703V8.09758C109.703 7.76556 109.65 7.50834 109.544 7.32591C109.442 7.13984 109.296 7.01031 109.106 6.93734C108.92 6.86072 108.697 6.82241 108.438 6.82241C108.216 6.82241 108.019 6.86072 107.847 6.93734C107.676 7.01396 107.532 7.11977 107.415 7.25477C107.298 7.38611 107.209 7.53753 107.147 7.70901C107.088 7.88049 107.059 8.06292 107.059 8.25629ZM120.019 11.1405V11.9997H116.035V11.1405H120.019ZM116.243 4.03128V11.9997H115.186V4.03128H116.243ZM120.807 9.10458V8.9787C120.807 8.55182 120.869 8.15596 120.993 7.7911C121.117 7.4226 121.296 7.10335 121.529 6.83336C121.763 6.55972 122.046 6.3481 122.378 6.19851C122.71 6.04527 123.082 5.96865 123.494 5.96865C123.91 5.96865 124.284 6.04527 124.616 6.19851C124.952 6.3481 125.236 6.55972 125.47 6.83336C125.707 7.10335 125.888 7.4226 126.012 7.7911C126.136 8.15596 126.198 8.55182 126.198 8.9787V9.10458C126.198 9.53146 126.136 9.92733 126.012 10.2922C125.888 10.657 125.707 10.9763 125.47 11.2499C125.236 11.5199 124.954 11.7315 124.622 11.8848C124.293 12.0344 123.921 12.1092 123.505 12.1092C123.089 12.1092 122.715 12.0344 122.383 11.8848C122.051 11.7315 121.767 11.5199 121.529 11.2499C121.296 10.9763 121.117 10.657 120.993 10.2922C120.869 9.92733 120.807 9.53146 120.807 9.10458ZM121.819 8.9787V9.10458C121.819 9.40011 121.854 9.67922 121.923 9.94192C121.993 10.201 122.097 10.4308 122.235 10.6315C122.378 10.8322 122.555 10.9909 122.766 11.1076C122.978 11.2207 123.224 11.2773 123.505 11.2773C123.782 11.2773 124.025 11.2207 124.233 11.1076C124.445 10.9909 124.62 10.8322 124.758 10.6315C124.897 10.4308 125.001 10.201 125.07 9.94192C125.143 9.67922 125.18 9.40011 125.18 9.10458V8.9787C125.18 8.68682 125.143 8.41135 125.07 8.15231C125.001 7.88961 124.895 7.65793 124.753 7.45726C124.614 7.25294 124.439 7.09241 124.228 6.97565C124.02 6.8589 123.775 6.80052 123.494 6.80052C123.217 6.80052 122.972 6.8589 122.761 6.97565C122.553 7.09241 122.378 7.25294 122.235 7.45726C122.097 7.65793 121.993 7.88961 121.923 8.15231C121.854 8.41135 121.819 8.68682 121.819 8.9787ZM129.947 6.07811V6.85525H126.745V6.07811H129.947ZM127.829 4.63876H128.841V10.533C128.841 10.7337 128.872 10.8851 128.934 10.9872C128.996 11.0894 129.076 11.1569 129.175 11.1897C129.273 11.2226 129.379 11.239 129.492 11.239C129.576 11.239 129.664 11.2317 129.755 11.2171C129.85 11.1988 129.921 11.1842 129.969 11.1733L129.974 11.9997C129.894 12.0252 129.788 12.049 129.657 12.0708C129.529 12.0964 129.374 12.1092 129.191 12.1092C128.943 12.1092 128.715 12.0599 128.507 11.9614C128.299 11.8629 128.133 11.6987 128.009 11.4688C127.889 11.2353 127.829 10.9216 127.829 10.5275V4.63876ZM133.613 6.07811V6.85525H130.412V6.07811H133.613ZM131.495 4.63876H132.508V10.533C132.508 10.7337 132.539 10.8851 132.601 10.9872C132.663 11.0894 132.743 11.1569 132.842 11.1897C132.94 11.2226 133.046 11.239 133.159 11.239C133.243 11.239 133.331 11.2317 133.422 11.2171C133.517 11.1988 133.588 11.1842 133.635 11.1733L133.641 11.9997C133.56 12.0252 133.455 12.049 133.323 12.0708C133.196 12.0964 133.041 12.1092 132.858 12.1092C132.61 12.1092 132.382 12.0599 132.174 11.9614C131.966 11.8629 131.8 11.6987 131.676 11.4688C131.556 11.2353 131.495 10.9216 131.495 10.5275V4.63876ZM135.901 6.07811V11.9997H134.883V6.07811H135.901ZM134.806 4.50741C134.806 4.34323 134.856 4.20458 134.954 4.09148C135.056 3.97837 135.206 3.92182 135.403 3.92182C135.596 3.92182 135.744 3.97837 135.846 4.09148C135.952 4.20458 136.005 4.34323 136.005 4.50741C136.005 4.6643 135.952 4.79929 135.846 4.9124C135.744 5.02186 135.596 5.07658 135.403 5.07658C135.206 5.07658 135.056 5.02186 134.954 4.9124C134.856 4.79929 134.806 4.6643 134.806 4.50741ZM139.984 12.1092C139.571 12.1092 139.198 12.0398 138.862 11.9012C138.53 11.7589 138.243 11.5601 138.003 11.3047C137.765 11.0493 137.583 10.7464 137.455 10.3962C137.328 10.0459 137.264 9.66281 137.264 9.24687V9.01701C137.264 8.53541 137.335 8.1067 137.477 7.7309C137.62 7.35145 137.813 7.03038 138.057 6.76768C138.302 6.50499 138.579 6.30614 138.889 6.17115C139.199 6.03615 139.52 5.96865 139.852 5.96865C140.276 5.96865 140.641 6.04162 140.947 6.18757C141.257 6.33351 141.511 6.53783 141.708 6.80052C141.905 7.05957 142.051 7.36605 142.146 7.71996C142.24 8.07022 142.288 8.45331 142.288 8.86925V9.32349H137.866V8.4971H141.275V8.42048C141.261 8.15778 141.206 7.90238 141.111 7.65428C141.02 7.40618 140.874 7.20186 140.673 7.04133C140.473 6.88079 140.199 6.80052 139.852 6.80052C139.623 6.80052 139.411 6.84978 139.218 6.94829C139.024 7.04315 138.858 7.18544 138.72 7.37517C138.581 7.56489 138.473 7.79657 138.397 8.07022C138.32 8.34386 138.282 8.65946 138.282 9.01701V9.24687C138.282 9.52781 138.32 9.79233 138.397 10.0404C138.477 10.2849 138.592 10.5001 138.741 10.6862C138.895 10.8723 139.079 11.0182 139.294 11.124C139.513 11.2299 139.761 11.2828 140.038 11.2828C140.396 11.2828 140.699 11.2098 140.947 11.0638C141.195 10.9179 141.412 10.7227 141.598 10.4783L142.211 10.9653C142.084 11.1587 141.921 11.343 141.724 11.5181C141.527 11.6932 141.284 11.8355 140.996 11.945C140.712 12.0544 140.374 12.1092 139.984 12.1092ZM145.982 9.10458V8.9787C145.982 8.55182 146.044 8.15596 146.168 7.7911C146.292 7.4226 146.471 7.10335 146.704 6.83336C146.938 6.55972 147.221 6.3481 147.553 6.19851C147.885 6.04527 148.257 5.96865 148.669 5.96865C149.085 5.96865 149.459 6.04527 149.791 6.19851C150.127 6.3481 150.411 6.55972 150.645 6.83336C150.882 7.10335 151.063 7.4226 151.187 7.7911C151.311 8.15596 151.373 8.55182 151.373 8.9787V9.10458C151.373 9.53146 151.311 9.92733 151.187 10.2922C151.063 10.657 150.882 10.9763 150.645 11.2499C150.411 11.5199 150.129 11.7315 149.797 11.8848C149.468 12.0344 149.096 12.1092 148.68 12.1092C148.264 12.1092 147.89 12.0344 147.558 11.8848C147.226 11.7315 146.942 11.5199 146.704 11.2499C146.471 10.9763 146.292 10.657 146.168 10.2922C146.044 9.92733 145.982 9.53146 145.982 9.10458ZM146.994 8.9787V9.10458C146.994 9.40011 147.029 9.67922 147.098 9.94192C147.168 10.201 147.272 10.4308 147.41 10.6315C147.553 10.8322 147.73 10.9909 147.941 11.1076C148.153 11.2207 148.399 11.2773 148.68 11.2773C148.957 11.2773 149.2 11.2207 149.408 11.1076C149.62 10.9909 149.795 10.8322 149.933 10.6315C150.072 10.4308 150.176 10.201 150.245 9.94192C150.318 9.67922 150.355 9.40011 150.355 9.10458V8.9787C150.355 8.68682 150.318 8.41135 150.245 8.15231C150.176 7.88961 150.07 7.65793 149.928 7.45726C149.789 7.25294 149.614 7.09241 149.402 6.97565C149.195 6.8589 148.95 6.80052 148.669 6.80052C148.392 6.80052 148.147 6.8589 147.936 6.97565C147.728 7.09241 147.553 7.25294 147.41 7.45726C147.272 7.65793 147.168 7.88961 147.098 8.15231C147.029 8.41135 146.994 8.68682 146.994 8.9787ZM153.655 7.00849V11.9997H152.642V6.07811H153.628L153.655 7.00849ZM155.505 6.04527L155.499 6.9866C155.415 6.96835 155.335 6.95741 155.258 6.95376C155.185 6.94646 155.102 6.94281 155.007 6.94281C154.773 6.94281 154.567 6.9793 154.388 7.05227C154.209 7.12524 154.058 7.2274 153.934 7.35875C153.81 7.4901 153.711 7.64698 153.638 7.82941C153.569 8.00819 153.524 8.20521 153.502 8.42048L153.217 8.58466C153.217 8.2271 153.252 7.89144 153.321 7.57766C153.394 7.26389 153.505 6.9866 153.655 6.74579C153.804 6.50134 153.994 6.31162 154.224 6.17662C154.458 6.03798 154.735 5.96865 155.056 5.96865C155.129 5.96865 155.213 5.97777 155.308 5.99602C155.403 6.01061 155.468 6.02703 155.505 6.04527ZM159.374 4.03128H162.012C162.61 4.03128 163.116 4.12249 163.528 4.30492C163.944 4.48734 164.259 4.75734 164.475 5.11489C164.694 5.4688 164.803 5.9048 164.803 6.4229C164.803 6.78775 164.728 7.12159 164.579 7.42442C164.433 7.7236 164.221 7.979 163.944 8.19062C163.67 8.39858 163.342 8.55365 162.959 8.65581L162.663 8.77074H160.184L160.173 7.9115H162.045C162.424 7.9115 162.74 7.84583 162.992 7.71448C163.243 7.57949 163.433 7.39888 163.561 7.17267C163.688 6.94646 163.752 6.69654 163.752 6.4229C163.752 6.11642 163.692 5.84825 163.572 5.61839C163.451 5.38853 163.261 5.21158 163.002 5.08753C162.747 4.95983 162.417 4.89598 162.012 4.89598H160.43V11.9997H159.374V4.03128ZM164.031 11.9997L162.094 8.38764L163.194 8.38217L165.159 11.934V11.9997H164.031ZM167.227 6.07811V11.9997H166.21V6.07811H167.227ZM166.133 4.50741C166.133 4.34323 166.182 4.20458 166.281 4.09148C166.383 3.97837 166.532 3.92182 166.729 3.92182C166.923 3.92182 167.071 3.97837 167.173 4.09148C167.279 4.20458 167.331 4.34323 167.331 4.50741C167.331 4.6643 167.279 4.79929 167.173 4.9124C167.071 5.02186 166.923 5.07658 166.729 5.07658C166.532 5.07658 166.383 5.02186 166.281 4.9124C166.182 4.79929 166.133 4.6643 166.133 4.50741ZM170.653 11.0857L172.273 6.07811H173.308L171.179 11.9997H170.5L170.653 11.0857ZM169.302 6.07811L170.971 11.1131L171.086 11.9997H170.407L168.262 6.07811H169.302ZM176.663 12.1092C176.25 12.1092 175.876 12.0398 175.541 11.9012C175.209 11.7589 174.922 11.5601 174.681 11.3047C174.444 11.0493 174.262 10.7464 174.134 10.3962C174.006 10.0459 173.943 9.66281 173.943 9.24687V9.01701C173.943 8.53541 174.014 8.1067 174.156 7.7309C174.298 7.35145 174.492 7.03038 174.736 6.76768C174.981 6.50499 175.258 6.30614 175.568 6.17115C175.878 6.03615 176.199 5.96865 176.531 5.96865C176.954 5.96865 177.319 6.04162 177.626 6.18757C177.936 6.33351 178.19 6.53783 178.387 6.80052C178.584 7.05957 178.73 7.36605 178.824 7.71996C178.919 8.07022 178.967 8.45331 178.967 8.86925V9.32349H174.545V8.4971H177.954V8.42048C177.94 8.15778 177.885 7.90238 177.79 7.65428C177.699 7.40618 177.553 7.20186 177.352 7.04133C177.152 6.88079 176.878 6.80052 176.531 6.80052C176.301 6.80052 176.09 6.84978 175.896 6.94829C175.703 7.04315 175.537 7.18544 175.398 7.37517C175.26 7.56489 175.152 7.79657 175.075 8.07022C174.999 8.34386 174.961 8.65946 174.961 9.01701V9.24687C174.961 9.52781 174.999 9.79233 175.075 10.0404C175.156 10.2849 175.271 10.5001 175.42 10.6862C175.574 10.8723 175.758 11.0182 175.973 11.124C176.192 11.2299 176.44 11.2828 176.717 11.2828C177.075 11.2828 177.378 11.2098 177.626 11.0638C177.874 10.9179 178.091 10.7227 178.277 10.4783L178.89 10.9653C178.762 11.1587 178.6 11.343 178.403 11.5181C178.206 11.6932 177.963 11.8355 177.675 11.945C177.39 12.0544 177.053 12.1092 176.663 12.1092ZM186.421 10.9872V7.93887C186.421 7.70536 186.373 7.50287 186.278 7.33139C186.187 7.15625 186.048 7.02126 185.862 6.9264C185.676 6.83153 185.446 6.7841 185.173 6.7841C184.917 6.7841 184.693 6.82789 184.5 6.91545C184.31 7.00302 184.16 7.11795 184.051 7.26024C183.945 7.40253 183.892 7.55577 183.892 7.71996H182.88C182.88 7.50834 182.934 7.29855 183.044 7.09058C183.153 6.88261 183.31 6.69471 183.515 6.52688C183.723 6.3554 183.971 6.2204 184.259 6.12189C184.551 6.01973 184.875 5.96865 185.233 5.96865C185.664 5.96865 186.043 6.04162 186.371 6.18757C186.703 6.33351 186.962 6.55424 187.149 6.84978C187.338 7.14166 187.433 7.50834 187.433 7.94981V10.7081C187.433 10.9051 187.45 11.1149 187.482 11.3375C187.519 11.5601 187.572 11.7516 187.641 11.9121V11.9997H186.585C186.534 11.8829 186.494 11.7279 186.464 11.5345C186.435 11.3375 186.421 11.1551 186.421 10.9872ZM186.596 8.40953L186.607 9.121H185.583C185.295 9.121 185.038 9.14471 184.812 9.19214C184.585 9.23593 184.396 9.30342 184.242 9.39464C184.089 9.48585 183.972 9.60078 183.892 9.73943C183.812 9.87442 183.772 10.0331 183.772 10.2156C183.772 10.4016 183.814 10.5713 183.898 10.7245C183.982 10.8778 184.107 11 184.275 11.0912C184.447 11.1788 184.657 11.2226 184.905 11.2226C185.215 11.2226 185.488 11.1569 185.726 11.0255C185.963 10.8942 186.151 10.7337 186.289 10.5439C186.432 10.3542 186.508 10.17 186.519 9.99118L186.952 10.4783C186.926 10.6315 186.857 10.8012 186.744 10.9872C186.63 11.1733 186.479 11.3521 186.289 11.5236C186.103 11.6914 185.881 11.8319 185.622 11.945C185.366 12.0544 185.078 12.1092 184.757 12.1092C184.356 12.1092 184.003 12.0307 183.701 11.8738C183.401 11.7169 183.168 11.5071 183 11.2445C182.836 10.9781 182.754 10.6808 182.754 10.3524C182.754 10.035 182.816 9.75584 182.94 9.51504C183.064 9.27059 183.243 9.06809 183.476 8.90756C183.71 8.74337 183.991 8.61932 184.319 8.53541C184.647 8.45149 185.014 8.40953 185.419 8.40953H186.596ZM190.038 7.34233V11.9997H189.026V6.07811H189.983L190.038 7.34233ZM189.797 8.81452L189.376 8.7981C189.38 8.39311 189.44 8.01914 189.557 7.67617C189.673 7.32956 189.838 7.02856 190.049 6.77316C190.261 6.51776 190.512 6.32074 190.804 6.18209C191.1 6.0398 191.426 5.96865 191.784 5.96865C192.076 5.96865 192.339 6.00879 192.572 6.08906C192.806 6.16567 193.004 6.28973 193.169 6.46121C193.336 6.63269 193.464 6.85525 193.552 7.12889C193.639 7.39888 193.683 7.72908 193.683 8.11947V11.9997H192.665V8.10853C192.665 7.7984 192.62 7.5503 192.528 7.36422C192.437 7.1745 192.304 7.03768 192.129 6.95376C191.954 6.8662 191.738 6.82241 191.483 6.82241C191.231 6.82241 191.001 6.87532 190.793 6.98112C190.589 7.08693 190.412 7.23287 190.263 7.41895C190.117 7.60503 190.002 7.81847 189.918 8.05927C189.838 8.29643 189.797 8.54818 189.797 8.81452ZM196.321 6.07811V11.9997H195.303V6.07811H196.321ZM195.226 4.50741C195.226 4.34323 195.276 4.20458 195.374 4.09148C195.476 3.97837 195.626 3.92182 195.823 3.92182C196.016 3.92182 196.164 3.97837 196.266 4.09148C196.372 4.20458 196.425 4.34323 196.425 4.50741C196.425 4.6643 196.372 4.79929 196.266 4.9124C196.164 5.02186 196.016 5.07658 195.823 5.07658C195.626 5.07658 195.476 5.02186 195.374 4.9124C195.276 4.79929 195.226 4.6643 195.226 4.50741ZM198.953 7.25477V11.9997H197.935V6.07811H198.899L198.953 7.25477ZM198.745 8.81452L198.275 8.7981C198.278 8.39311 198.331 8.01914 198.433 7.67617C198.536 7.32956 198.687 7.02856 198.888 6.77316C199.088 6.51776 199.338 6.32074 199.637 6.18209C199.937 6.0398 200.283 5.96865 200.677 5.96865C200.955 5.96865 201.21 6.00879 201.444 6.08906C201.677 6.16567 201.88 6.2879 202.051 6.45573C202.222 6.62357 202.356 6.83883 202.451 7.10153C202.545 7.36422 202.593 7.68165 202.593 8.0538V11.9997H201.58V8.10305C201.58 7.79293 201.527 7.54483 201.422 7.35875C201.319 7.17267 201.174 7.03768 200.984 6.95376C200.794 6.8662 200.572 6.82241 200.316 6.82241C200.017 6.82241 199.767 6.87532 199.566 6.98112C199.366 7.08693 199.205 7.23287 199.085 7.41895C198.964 7.60503 198.877 7.81847 198.822 8.05927C198.771 8.29643 198.745 8.54818 198.745 8.81452ZM202.582 8.25629L201.903 8.46426C201.907 8.13954 201.96 7.82759 202.062 7.52841C202.168 7.22923 202.319 6.96288 202.516 6.72937C202.717 6.49587 202.963 6.31162 203.255 6.17662C203.547 6.03798 203.881 5.96865 204.257 5.96865C204.574 5.96865 204.855 6.01061 205.099 6.09453C205.347 6.17844 205.555 6.30797 205.723 6.4831C205.895 6.65458 206.024 6.87532 206.112 7.14531C206.199 7.4153 206.243 7.73637 206.243 8.10853V11.9997H205.225V8.09758C205.225 7.76556 205.172 7.50834 205.067 7.32591C204.964 7.13984 204.818 7.01031 204.629 6.93734C204.443 6.86072 204.22 6.82241 203.961 6.82241C203.738 6.82241 203.541 6.86072 203.37 6.93734C203.198 7.01396 203.054 7.11977 202.938 7.25477C202.821 7.38611 202.731 7.53753 202.669 7.70901C202.611 7.88049 202.582 8.06292 202.582 8.25629ZM211.267 10.9872V7.93887C211.267 7.70536 211.22 7.50287 211.125 7.33139C211.034 7.15625 210.895 7.02126 210.709 6.9264C210.523 6.83153 210.293 6.7841 210.019 6.7841C209.764 6.7841 209.54 6.82789 209.346 6.91545C209.157 7.00302 209.007 7.11795 208.898 7.26024C208.792 7.40253 208.739 7.55577 208.739 7.71996H207.726C207.726 7.50834 207.781 7.29855 207.891 7.09058C208 6.88261 208.157 6.69471 208.361 6.52688C208.569 6.3554 208.817 6.2204 209.105 6.12189C209.397 6.01973 209.722 5.96865 210.08 5.96865C210.51 5.96865 210.89 6.04162 211.218 6.18757C211.55 6.33351 211.809 6.55424 211.995 6.84978C212.185 7.14166 212.28 7.50834 212.28 7.94981V10.7081C212.28 10.9051 212.296 11.1149 212.329 11.3375C212.365 11.5601 212.418 11.7516 212.488 11.9121V11.9997H211.431C211.38 11.8829 211.34 11.7279 211.311 11.5345C211.282 11.3375 211.267 11.1551 211.267 10.9872ZM211.442 8.40953L211.453 9.121H210.43C210.142 9.121 209.884 9.14471 209.658 9.19214C209.432 9.23593 209.242 9.30342 209.089 9.39464C208.936 9.48585 208.819 9.60078 208.739 9.73943C208.659 9.87442 208.618 10.0331 208.618 10.2156C208.618 10.4016 208.66 10.5713 208.744 10.7245C208.828 10.8778 208.954 11 209.122 11.0912C209.293 11.1788 209.503 11.2226 209.751 11.2226C210.061 11.2226 210.335 11.1569 210.572 11.0255C210.809 10.8942 210.997 10.7337 211.136 10.5439C211.278 10.3542 211.355 10.17 211.366 9.99118L211.798 10.4783C211.773 10.6315 211.703 10.8012 211.59 10.9872C211.477 11.1733 211.326 11.3521 211.136 11.5236C210.95 11.6914 210.727 11.8319 210.468 11.945C210.213 12.0544 209.925 12.1092 209.604 12.1092C209.202 12.1092 208.85 12.0307 208.547 11.8738C208.248 11.7169 208.015 11.5071 207.847 11.2445C207.683 10.9781 207.6 10.6808 207.6 10.3524C207.6 10.035 207.662 9.75584 207.787 9.51504C207.911 9.27059 208.089 9.06809 208.323 8.90756C208.556 8.74337 208.837 8.61932 209.166 8.53541C209.494 8.45149 209.861 8.40953 210.266 8.40953H211.442ZM216.351 6.07811V6.85525H213.15V6.07811H216.351ZM214.234 4.63876H215.246V10.533C215.246 10.7337 215.277 10.8851 215.339 10.9872C215.401 11.0894 215.481 11.1569 215.58 11.1897C215.678 11.2226 215.784 11.239 215.897 11.239C215.981 11.239 216.069 11.2317 216.16 11.2171C216.255 11.1988 216.326 11.1842 216.373 11.1733L216.379 11.9997C216.299 12.0252 216.193 12.049 216.061 12.0708C215.934 12.0964 215.779 12.1092 215.596 12.1092C215.348 12.1092 215.12 12.0599 214.912 11.9614C214.704 11.8629 214.538 11.6987 214.414 11.4688C214.294 11.2353 214.234 10.9216 214.234 10.5275V4.63876ZM218.639 6.07811V11.9997H217.621V6.07811H218.639ZM217.545 4.50741C217.545 4.34323 217.594 4.20458 217.692 4.09148C217.794 3.97837 217.944 3.92182 218.141 3.92182C218.334 3.92182 218.482 3.97837 218.584 4.09148C218.69 4.20458 218.743 4.34323 218.743 4.50741C218.743 4.6643 218.69 4.79929 218.584 4.9124C218.482 5.02186 218.334 5.07658 218.141 5.07658C217.944 5.07658 217.794 5.02186 217.692 4.9124C217.594 4.79929 217.545 4.6643 217.545 4.50741ZM219.996 9.10458V8.9787C219.996 8.55182 220.058 8.15596 220.182 7.7911C220.307 7.4226 220.485 7.10335 220.719 6.83336C220.952 6.55972 221.235 6.3481 221.567 6.19851C221.899 6.04527 222.271 5.96865 222.684 5.96865C223.099 5.96865 223.473 6.04527 223.805 6.19851C224.141 6.3481 224.426 6.55972 224.659 6.83336C224.896 7.10335 225.077 7.4226 225.201 7.7911C225.325 8.15596 225.387 8.55182 225.387 8.9787V9.10458C225.387 9.53146 225.325 9.92733 225.201 10.2922C225.077 10.657 224.896 10.9763 224.659 11.2499C224.426 11.5199 224.143 11.7315 223.811 11.8848C223.483 12.0344 223.11 12.1092 222.694 12.1092C222.279 12.1092 221.905 12.0344 221.573 11.8848C221.241 11.7315 220.956 11.5199 220.719 11.2499C220.485 10.9763 220.307 10.657 220.182 10.2922C220.058 9.92733 219.996 9.53146 219.996 9.10458ZM221.009 8.9787V9.10458C221.009 9.40011 221.044 9.67922 221.113 9.94192C221.182 10.201 221.286 10.4308 221.425 10.6315C221.567 10.8322 221.744 10.9909 221.956 11.1076C222.167 11.2207 222.414 11.2773 222.694 11.2773C222.972 11.2773 223.214 11.2207 223.422 11.1076C223.634 10.9909 223.809 10.8322 223.948 10.6315C224.086 10.4308 224.19 10.201 224.26 9.94192C224.333 9.67922 224.369 9.40011 224.369 9.10458V8.9787C224.369 8.68682 224.333 8.41135 224.26 8.15231C224.19 7.88961 224.085 7.65793 223.942 7.45726C223.804 7.25294 223.629 7.09241 223.417 6.97565C223.209 6.8589 222.964 6.80052 222.684 6.80052C222.406 6.80052 222.162 6.8589 221.95 6.97565C221.742 7.09241 221.567 7.25294 221.425 7.45726C221.286 7.65793 221.182 7.88961 221.113 8.15231C221.044 8.41135 221.009 8.68682 221.009 8.9787ZM227.669 7.34233V11.9997H226.657V6.07811H227.615L227.669 7.34233ZM227.428 8.81452L227.007 8.7981C227.011 8.39311 227.071 8.01914 227.188 7.67617C227.304 7.32956 227.469 7.02856 227.68 6.77316C227.892 6.51776 228.144 6.32074 228.435 6.18209C228.731 6.0398 229.058 5.96865 229.415 5.96865C229.707 5.96865 229.97 6.00879 230.203 6.08906C230.437 6.16567 230.636 6.28973 230.8 6.46121C230.968 6.63269 231.095 6.85525 231.183 7.12889C231.27 7.39888 231.314 7.72908 231.314 8.11947V11.9997H230.296V8.10853C230.296 7.7984 230.251 7.5503 230.159 7.36422C230.068 7.1745 229.935 7.03768 229.76 6.95376C229.585 6.8662 229.37 6.82241 229.114 6.82241C228.862 6.82241 228.633 6.87532 228.425 6.98112C228.22 7.08693 228.043 7.23287 227.894 7.41895C227.748 7.60503 227.633 7.81847 227.549 8.05927C227.469 8.29643 227.428 8.54818 227.428 8.81452ZM236.3 10.429C236.3 10.2831 236.267 10.1481 236.201 10.024C236.139 9.89631 236.01 9.78138 235.813 9.67922C235.619 9.57342 235.328 9.4822 234.937 9.40558C234.609 9.33626 234.311 9.25417 234.045 9.15931C233.782 9.06444 233.558 8.94952 233.372 8.81452C233.19 8.67952 233.049 8.52081 232.951 8.33838C232.852 8.15596 232.803 7.94252 232.803 7.69806C232.803 7.46456 232.854 7.24382 232.956 7.03585C233.062 6.82789 233.21 6.64363 233.399 6.4831C233.593 6.32256 233.824 6.19669 234.094 6.10547C234.364 6.01426 234.665 5.96865 234.997 5.96865C235.472 5.96865 235.877 6.05257 236.212 6.2204C236.548 6.38824 236.805 6.61262 236.984 6.89356C237.163 7.17085 237.252 7.47915 237.252 7.81847H236.24C236.24 7.65428 236.19 7.49557 236.092 7.34233C235.997 7.18544 235.857 7.05592 235.671 6.95376C235.488 6.8516 235.264 6.80052 234.997 6.80052C234.716 6.80052 234.488 6.8443 234.313 6.93187C234.142 7.01579 234.016 7.12342 233.936 7.25477C233.859 7.38611 233.821 7.52476 233.821 7.6707C233.821 7.78016 233.839 7.87867 233.875 7.96623C233.916 8.05015 233.985 8.12859 234.083 8.20156C234.182 8.27089 234.321 8.33656 234.499 8.39858C234.678 8.46061 234.906 8.52264 235.183 8.58466C235.669 8.69412 236.068 8.82546 236.382 8.9787C236.696 9.13194 236.929 9.31984 237.083 9.5424C237.236 9.76497 237.312 10.035 237.312 10.3524C237.312 10.6114 237.258 10.8486 237.148 11.0638C237.042 11.2791 236.887 11.4652 236.683 11.6221C236.482 11.7753 236.242 11.8957 235.961 11.9833C235.683 12.0672 235.371 12.1092 235.025 12.1092C234.503 12.1092 234.062 12.0161 233.7 11.83C233.339 11.644 233.065 11.4032 232.879 11.1076C232.693 10.8121 232.6 10.5001 232.6 10.1718H233.618C233.633 10.4491 233.713 10.6698 233.859 10.834C234.005 10.9945 234.184 11.1095 234.395 11.1788C234.607 11.2445 234.817 11.2773 235.025 11.2773C235.302 11.2773 235.534 11.2408 235.72 11.1678C235.91 11.0949 236.054 10.9945 236.152 10.8668C236.251 10.7391 236.3 10.5932 236.3 10.429ZM243.902 6.07811V6.85525H240.7V6.07811H243.902ZM241.784 4.63876H242.796V10.533C242.796 10.7337 242.827 10.8851 242.889 10.9872C242.951 11.0894 243.031 11.1569 243.13 11.1897C243.229 11.2226 243.334 11.239 243.447 11.239C243.531 11.239 243.619 11.2317 243.71 11.2171C243.805 11.1988 243.876 11.1842 243.924 11.1733L243.929 11.9997C243.849 12.0252 243.743 12.049 243.612 12.0708C243.484 12.0964 243.329 12.1092 243.146 12.1092C242.898 12.1092 242.67 12.0599 242.462 11.9614C242.254 11.8629 242.088 11.6987 241.964 11.4688C241.844 11.2353 241.784 10.9216 241.784 10.5275V4.63876ZM246.102 3.59345V11.9997H245.089V3.59345H246.102ZM245.861 8.81452L245.44 8.7981C245.443 8.39311 245.503 8.01914 245.62 7.67617C245.737 7.32956 245.901 7.02856 246.113 6.77316C246.324 6.51776 246.576 6.32074 246.868 6.18209C247.163 6.0398 247.49 5.96865 247.848 5.96865C248.139 5.96865 248.402 6.00879 248.636 6.08906C248.869 6.16567 249.068 6.28973 249.232 6.46121C249.4 6.63269 249.528 6.85525 249.615 7.12889C249.703 7.39888 249.747 7.72908 249.747 8.11947V11.9997H248.729V8.10853C248.729 7.7984 248.683 7.5503 248.592 7.36422C248.501 7.1745 248.367 7.03768 248.192 6.95376C248.017 6.8662 247.802 6.82241 247.547 6.82241C247.295 6.82241 247.065 6.87532 246.857 6.98112C246.653 7.08693 246.476 7.23287 246.326 7.41895C246.18 7.60503 246.065 7.81847 245.981 8.05927C245.901 8.29643 245.861 8.54818 245.861 8.81452ZM254.754 10.9872V7.93887C254.754 7.70536 254.707 7.50287 254.612 7.33139C254.521 7.15625 254.382 7.02126 254.196 6.9264C254.01 6.83153 253.78 6.7841 253.506 6.7841C253.251 6.7841 253.027 6.82789 252.833 6.91545C252.644 7.00302 252.494 7.11795 252.385 7.26024C252.279 7.40253 252.226 7.55577 252.226 7.71996H251.213C251.213 7.50834 251.268 7.29855 251.378 7.09058C251.487 6.88261 251.644 6.69471 251.848 6.52688C252.056 6.3554 252.304 6.2204 252.592 6.12189C252.884 6.01973 253.209 5.96865 253.567 5.96865C253.997 5.96865 254.377 6.04162 254.705 6.18757C255.037 6.33351 255.296 6.55424 255.482 6.84978C255.672 7.14166 255.767 7.50834 255.767 7.94981V10.7081C255.767 10.9051 255.783 11.1149 255.816 11.3375C255.852 11.5601 255.905 11.7516 255.975 11.9121V11.9997H254.918C254.867 11.8829 254.827 11.7279 254.798 11.5345C254.769 11.3375 254.754 11.1551 254.754 10.9872ZM254.929 8.40953L254.94 9.121H253.917C253.629 9.121 253.371 9.14471 253.145 9.19214C252.919 9.23593 252.729 9.30342 252.576 9.39464C252.423 9.48585 252.306 9.60078 252.226 9.73943C252.146 9.87442 252.105 10.0331 252.105 10.2156C252.105 10.4016 252.147 10.5713 252.231 10.7245C252.315 10.8778 252.441 11 252.609 11.0912C252.78 11.1788 252.99 11.2226 253.238 11.2226C253.548 11.2226 253.822 11.1569 254.059 11.0255C254.296 10.8942 254.484 10.7337 254.623 10.5439C254.765 10.3542 254.842 10.17 254.853 9.99118L255.285 10.4783C255.26 10.6315 255.19 10.8012 255.077 10.9872C254.964 11.1733 254.813 11.3521 254.623 11.5236C254.437 11.6914 254.214 11.8319 253.955 11.945C253.7 12.0544 253.412 12.1092 253.091 12.1092C252.689 12.1092 252.337 12.0307 252.034 11.8738C251.735 11.7169 251.502 11.5071 251.334 11.2445C251.17 10.9781 251.087 10.6808 251.087 10.3524C251.087 10.035 251.149 9.75584 251.274 9.51504C251.398 9.27059 251.576 9.06809 251.81 8.90756C252.043 8.74337 252.324 8.61932 252.653 8.53541C252.981 8.45149 253.348 8.40953 253.753 8.40953H254.929ZM259.839 6.07811V6.85525H256.637V6.07811H259.839ZM257.721 4.63876H258.733V10.533C258.733 10.7337 258.764 10.8851 258.826 10.9872C258.888 11.0894 258.968 11.1569 259.067 11.1897C259.165 11.2226 259.271 11.239 259.384 11.239C259.468 11.239 259.556 11.2317 259.647 11.2171C259.742 11.1988 259.813 11.1842 259.86 11.1733L259.866 11.9997C259.786 12.0252 259.68 12.049 259.548 12.0708C259.421 12.0964 259.266 12.1092 259.083 12.1092C258.835 12.1092 258.607 12.0599 258.399 11.9614C258.191 11.8629 258.025 11.6987 257.901 11.4688C257.781 11.2353 257.721 10.9216 257.721 10.5275V4.63876ZM2.27124 28.9489L3.79268 24.0781H4.46037L4.32902 25.0468L2.78021 29.9997H2.12895L2.27124 28.9489ZM1.24782 24.0781L2.54488 29.0036L2.63792 29.9997H1.95382L0.235352 24.0781H1.24782ZM5.91614 28.9653L7.15299 24.0781H8.15999L6.44153 29.9997H5.7629L5.91614 28.9653ZM4.60813 24.0781L6.09674 28.8668L6.2664 29.9997H5.62061L4.02802 25.0359L3.89667 24.0781H4.60813ZM10.2998 24.0781V29.9997H9.28192V24.0781H10.2998ZM9.2053 22.5074C9.2053 22.3432 9.25456 22.2046 9.35307 22.0915C9.45523 21.9784 9.60482 21.9218 9.80184 21.9218C9.99521 21.9218 10.143 21.9784 10.2451 22.0915C10.3509 22.2046 10.4038 22.3432 10.4038 22.5074C10.4038 22.6643 10.3509 22.7993 10.2451 22.9124C10.143 23.0219 9.99521 23.0766 9.80184 23.0766C9.60482 23.0766 9.45523 23.0219 9.35307 22.9124C9.25456 22.7993 9.2053 22.6643 9.2053 22.5074ZM13.0253 21.5934V29.9997H12.0074V21.5934H13.0253ZM15.7508 21.5934V29.9997H14.7328V21.5934H15.7508ZM22.6356 24.0781V24.8552H19.434V24.0781H22.6356ZM20.5176 22.6388H21.5301V28.533C21.5301 28.7337 21.5611 28.8851 21.6231 28.9872C21.6851 29.0894 21.7654 29.1569 21.8639 29.1897C21.9624 29.2226 22.0682 29.239 22.1813 29.239C22.2653 29.239 22.3528 29.2317 22.444 29.2171C22.5389 29.1988 22.61 29.1842 22.6575 29.1733L22.6629 29.9997C22.5827 30.0252 22.4769 30.049 22.3455 30.0708C22.2178 30.0964 22.0628 30.1092 21.8803 30.1092C21.6322 30.1092 21.4042 30.0599 21.1962 29.9614C20.9883 29.8629 20.8223 29.6987 20.6982 29.4688C20.5778 29.2353 20.5176 28.9216 20.5176 28.5275V22.6388ZM27.3148 28.9872V25.9389C27.3148 25.7054 27.2674 25.5029 27.1725 25.3314C27.0813 25.1563 26.9427 25.0213 26.7566 24.9264C26.5705 24.8315 26.3407 24.7841 26.067 24.7841C25.8116 24.7841 25.5873 24.8279 25.3939 24.9155C25.2042 25.003 25.0546 25.1179 24.9451 25.2602C24.8393 25.4025 24.7864 25.5558 24.7864 25.72H23.7739C23.7739 25.5083 23.8287 25.2985 23.9381 25.0906C24.0476 24.8826 24.2045 24.6947 24.4088 24.5269C24.6167 24.3554 24.8648 24.2204 25.1531 24.1219C25.445 24.0197 25.7697 23.9687 26.1272 23.9687C26.5578 23.9687 26.9372 24.0416 27.2656 24.1876C27.5976 24.3335 27.8567 24.5542 28.0427 24.8498C28.2325 25.1417 28.3273 25.5083 28.3273 25.9498V28.7081C28.3273 28.9051 28.3437 29.1149 28.3766 29.3375C28.4131 29.5601 28.466 29.7516 28.5353 29.9121V29.9997H27.479C27.4279 29.8829 27.3878 29.7279 27.3586 29.5345C27.3294 29.3375 27.3148 29.1551 27.3148 28.9872ZM27.49 26.4095L27.5009 27.121H26.4775C26.1893 27.121 25.932 27.1447 25.7058 27.1921C25.4796 27.2359 25.2899 27.3034 25.1367 27.3946C24.9834 27.4859 24.8667 27.6008 24.7864 27.7394C24.7061 27.8744 24.666 28.0331 24.666 28.2156C24.666 28.4016 24.708 28.5713 24.7919 28.7245C24.8758 28.8778 25.0017 29 25.1695 29.0912C25.341 29.1788 25.5508 29.2226 25.7989 29.2226C26.109 29.2226 26.3826 29.1569 26.6198 29.0255C26.8569 28.8942 27.0448 28.7337 27.1835 28.5439C27.3258 28.3542 27.4024 28.17 27.4134 27.9912L27.8457 28.4783C27.8202 28.6315 27.7508 28.8012 27.6377 28.9872C27.5246 29.1733 27.3732 29.3521 27.1835 29.5236C26.9974 29.6914 26.7749 29.8319 26.5158 29.945C26.2604 30.0544 25.9722 30.1092 25.6511 30.1092C25.2498 30.1092 24.8977 30.0307 24.5949 29.8738C24.2957 29.7169 24.0622 29.5071 23.8943 29.2445C23.7301 28.9781 23.6481 28.6808 23.6481 28.3524C23.6481 28.035 23.7101 27.7558 23.8341 27.515C23.9582 27.2706 24.137 27.0681 24.3705 26.9076C24.604 26.7434 24.8849 26.6193 25.2133 26.5354C25.5416 26.4515 25.9083 26.4095 26.3133 26.4095H27.49ZM30.9378 21.5934V29.9997H29.9199V21.5934H30.9378ZM34.5554 24.0781L31.9722 26.8419L30.5274 28.3414L30.4453 27.2633L31.4797 26.0264L33.3185 24.0781H34.5554ZM33.6305 29.9997L31.518 27.1757L32.0434 26.2727L34.8235 29.9997H33.6305ZM37.9485 30.1092C37.5362 30.1092 37.1623 30.0398 36.8266 29.9012C36.4946 29.7589 36.2082 29.5601 35.9674 29.3047C35.7302 29.0493 35.5478 28.7464 35.4201 28.3962C35.2924 28.0459 35.2285 27.6628 35.2285 27.2469V27.017C35.2285 26.5354 35.2997 26.1067 35.442 25.7309C35.5843 25.3515 35.7776 25.0304 36.0221 24.7677C36.2665 24.505 36.5438 24.3061 36.854 24.1711C37.1641 24.0362 37.4852 23.9687 37.8172 23.9687C38.2404 23.9687 38.6053 24.0416 38.9117 24.1876C39.2219 24.3335 39.4754 24.5378 39.6725 24.8005C39.8695 25.0596 40.0154 25.366 40.1103 25.72C40.2052 26.0702 40.2526 26.4533 40.2526 26.8692V27.3235H35.8305V26.4971H39.2401V26.4205C39.2255 26.1578 39.1708 25.9024 39.0759 25.6543C38.9847 25.4062 38.8388 25.2019 38.6381 25.0413C38.4374 24.8808 38.1638 24.8005 37.8172 24.8005C37.5873 24.8005 37.3757 24.8498 37.1823 24.9483C36.989 25.0431 36.823 25.1854 36.6843 25.3752C36.5457 25.5649 36.438 25.7966 36.3614 26.0702C36.2848 26.3439 36.2465 26.6595 36.2465 27.017V27.2469C36.2465 27.5278 36.2848 27.7923 36.3614 28.0404C36.4417 28.2849 36.5566 28.5001 36.7062 28.6862C36.8594 28.8723 37.0437 29.0182 37.259 29.124C37.4779 29.2299 37.726 29.2828 38.0033 29.2828C38.3608 29.2828 38.6636 29.2098 38.9117 29.0638C39.1598 28.9179 39.3769 28.7227 39.563 28.4783L40.176 28.9653C40.0483 29.1587 39.8859 29.343 39.6889 29.5181C39.4919 29.6932 39.2492 29.8355 38.961 29.945C38.6764 30.0544 38.3389 30.1092 37.9485 30.1092ZM45.8786 29.3867L47.526 24.0781H48.6096L46.2344 30.9137C46.1797 31.0596 46.1067 31.2165 46.0155 31.3843C45.9279 31.5558 45.8148 31.7182 45.6762 31.8714C45.5375 32.0246 45.3697 32.1487 45.1727 32.2436C44.9793 32.3421 44.7476 32.3913 44.4776 32.3913C44.3973 32.3913 44.2952 32.3804 44.1711 32.3585C44.0471 32.3366 43.9595 32.3184 43.9084 32.3038L43.903 31.4828C43.9321 31.4865 43.9778 31.4901 44.0398 31.4938C44.1055 31.5011 44.1511 31.5047 44.1766 31.5047C44.4065 31.5047 44.6017 31.4737 44.7622 31.4117C44.9227 31.3533 45.0577 31.253 45.1672 31.1107C45.2803 30.972 45.377 30.7805 45.4572 30.536L45.8786 29.3867ZM44.6692 24.0781L46.207 28.6753L46.4697 29.7425L45.7418 30.1146L43.5636 24.0781H44.6692ZM49.1678 27.1046V26.9787C49.1678 26.5518 49.2298 26.156 49.3539 25.7911C49.4779 25.4226 49.6567 25.1034 49.8902 24.8334C50.1237 24.5597 50.4065 24.3481 50.7385 24.1985C51.0705 24.0453 51.4427 23.9687 51.855 23.9687C52.2709 23.9687 52.6449 24.0453 52.9769 24.1985C53.3126 24.3481 53.5971 24.5597 53.8307 24.8334C54.0678 25.1034 54.2484 25.4226 54.3725 25.7911C54.4965 26.156 54.5585 26.5518 54.5585 26.9787V27.1046C54.5585 27.5315 54.4965 27.9273 54.3725 28.2922C54.2484 28.657 54.0678 28.9763 53.8307 29.2499C53.5971 29.5199 53.3144 29.7315 52.9824 29.8848C52.654 30.0344 52.2818 30.1092 51.8659 30.1092C51.45 30.1092 51.076 30.0344 50.744 29.8848C50.412 29.7315 50.1274 29.5199 49.8902 29.2499C49.6567 28.9763 49.4779 28.657 49.3539 28.2922C49.2298 27.9273 49.1678 27.5315 49.1678 27.1046ZM50.1803 26.9787V27.1046C50.1803 27.4001 50.2149 27.6792 50.2843 27.9419C50.3536 28.201 50.4576 28.4308 50.5962 28.6315C50.7385 28.8322 50.9155 28.9909 51.1271 29.1076C51.3387 29.2207 51.585 29.2773 51.8659 29.2773C52.1432 29.2773 52.3858 29.2207 52.5938 29.1076C52.8054 28.9909 52.9805 28.8322 53.1192 28.6315C53.2578 28.4308 53.3618 28.201 53.4311 27.9419C53.5041 27.6792 53.5406 27.4001 53.5406 27.1046V26.9787C53.5406 26.6868 53.5041 26.4114 53.4311 26.1523C53.3618 25.8896 53.256 25.6579 53.1137 25.4573C52.9751 25.2529 52.7999 25.0924 52.5883 24.9757C52.3804 24.8589 52.1359 24.8005 51.855 24.8005C51.5777 24.8005 51.3332 24.8589 51.1216 24.9757C50.9136 25.0924 50.7385 25.2529 50.5962 25.4573C50.4576 25.6579 50.3536 25.8896 50.2843 26.1523C50.2149 26.4114 50.1803 26.6868 50.1803 26.9787ZM59.4512 28.6315V24.0781H60.4692V29.9997H59.5005L59.4512 28.6315ZM59.6428 27.3837L60.0642 27.3727C60.0642 27.7668 60.0222 28.1316 59.9383 28.4673C59.8581 28.7993 59.7267 29.0876 59.5443 29.332C59.3618 29.5765 59.1229 29.768 58.8273 29.9067C58.5318 30.0417 58.1724 30.1092 57.7492 30.1092C57.461 30.1092 57.1964 30.0672 56.9556 29.9833C56.7185 29.8994 56.5142 29.7698 56.3427 29.5947C56.1712 29.4196 56.038 29.1915 55.9432 28.9106C55.8519 28.6297 55.8063 28.2922 55.8063 27.8981V24.0781H56.8188V27.9091C56.8188 28.1754 56.848 28.3962 56.9064 28.5713C56.9684 28.7428 57.0505 28.8796 57.1527 28.9818C57.2585 29.0803 57.3752 29.1496 57.5029 29.1897C57.6343 29.2299 57.7693 29.2499 57.9079 29.2499C58.3384 29.2499 58.6796 29.1678 58.9313 29.0036C59.1831 28.8358 59.3637 28.6114 59.4731 28.3305C59.5862 28.0459 59.6428 27.7303 59.6428 27.3837ZM63.025 25.0085V29.9997H62.0125V24.0781H62.9976L63.025 25.0085ZM64.8748 24.0453L64.8693 24.9866C64.7854 24.9684 64.7051 24.9574 64.6285 24.9538C64.5556 24.9465 64.4716 24.9428 64.3768 24.9428C64.1433 24.9428 63.9371 24.9793 63.7583 25.0523C63.5796 25.1252 63.4282 25.2274 63.3041 25.3587C63.1801 25.4901 63.0815 25.647 63.0086 25.8294C62.9392 26.0082 62.8936 26.2052 62.8717 26.4205L62.5872 26.5847C62.5872 26.2271 62.6218 25.8914 62.6911 25.5777C62.7641 25.2639 62.8754 24.9866 63.025 24.7458C63.1746 24.5013 63.3643 24.3116 63.5942 24.1766C63.8277 24.038 64.105 23.9687 64.426 23.9687C64.499 23.9687 64.5829 23.9778 64.6778 23.996C64.7726 24.0106 64.8383 24.027 64.8748 24.0453ZM69.6033 25.2165V32.2764H68.5854V24.0781H69.5157L69.6033 25.2165ZM73.593 26.9896V27.1046C73.593 27.5351 73.5419 27.9346 73.4398 28.3031C73.3376 28.668 73.188 28.9854 72.991 29.2554C72.7976 29.5254 72.5586 29.7352 72.2741 29.8848C71.9895 30.0344 71.6629 30.1092 71.2944 30.1092C70.9186 30.1092 70.5866 30.0471 70.2984 29.9231C70.0101 29.799 69.7657 29.6184 69.565 29.3813C69.3643 29.1441 69.2038 28.8595 69.0834 28.5275C68.9666 28.1955 68.8864 27.8215 68.8426 27.4056V26.7926C68.8864 26.3548 68.9685 25.9626 69.0889 25.616C69.2093 25.2694 69.368 24.9738 69.565 24.7294C69.7657 24.4813 70.0083 24.2934 70.2929 24.1657C70.5775 24.0343 70.9058 23.9687 71.278 23.9687C71.6501 23.9687 71.9803 24.0416 72.2686 24.1876C72.5568 24.3299 72.7994 24.5342 72.9965 24.8005C73.1935 25.0669 73.3413 25.3861 73.4398 25.7583C73.5419 26.1268 73.593 26.5372 73.593 26.9896ZM72.5751 27.1046V26.9896C72.5751 26.6941 72.544 26.4168 72.482 26.1578C72.42 25.8951 72.3233 25.6652 72.192 25.4682C72.0643 25.2675 71.9001 25.1106 71.6994 24.9975C71.4987 24.8808 71.2598 24.8224 70.9825 24.8224C70.7271 24.8224 70.5045 24.8662 70.3148 24.9538C70.1287 25.0413 69.97 25.1599 69.8386 25.3095C69.7073 25.4554 69.5997 25.6233 69.5157 25.813C69.4355 25.9991 69.3753 26.1924 69.3351 26.3931V27.8106C69.4081 28.066 69.5103 28.3068 69.6416 28.533C69.773 28.7555 69.9481 28.9361 70.167 29.0748C70.3859 29.2098 70.6614 29.2773 70.9934 29.2773C71.2671 29.2773 71.5024 29.2207 71.6994 29.1076C71.9001 28.9909 72.0643 28.8322 72.192 28.6315C72.3233 28.4308 72.42 28.201 72.482 27.9419C72.544 27.6792 72.5751 27.4001 72.5751 27.1046ZM75.8971 25.0085V29.9997H74.8846V24.0781H75.8697L75.8971 25.0085ZM77.7469 24.0453L77.7414 24.9866C77.6575 24.9684 77.5772 24.9574 77.5006 24.9538C77.4276 24.9465 77.3437 24.9428 77.2488 24.9428C77.0153 24.9428 76.8092 24.9793 76.6304 25.0523C76.4516 25.1252 76.3002 25.2274 76.1762 25.3587C76.0521 25.4901 75.9536 25.647 75.8806 25.8294C75.8113 26.0082 75.7657 26.2052 75.7438 26.4205L75.4592 26.5847C75.4592 26.2271 75.4939 25.8914 75.5632 25.5777C75.6362 25.2639 75.7475 24.9866 75.8971 24.7458C76.0467 24.5013 76.2364 24.3116 76.4662 24.1766C76.6997 24.038 76.977 23.9687 77.2981 23.9687C77.3711 23.9687 77.455 23.9778 77.5499 23.996C77.6447 24.0106 77.7104 24.027 77.7469 24.0453ZM78.3051 27.1046V26.9787C78.3051 26.5518 78.3671 26.156 78.4912 25.7911C78.6152 25.4226 78.794 25.1034 79.0275 24.8334C79.261 24.5597 79.5438 24.3481 79.8758 24.1985C80.2078 24.0453 80.58 23.9687 80.9923 23.9687C81.4082 23.9687 81.7822 24.0453 82.1142 24.1985C82.4498 24.3481 82.7344 24.5597 82.9679 24.8334C83.2051 25.1034 83.3857 25.4226 83.5097 25.7911C83.6338 26.156 83.6958 26.5518 83.6958 26.9787V27.1046C83.6958 27.5315 83.6338 27.9273 83.5097 28.2922C83.3857 28.657 83.2051 28.9763 82.9679 29.2499C82.7344 29.5199 82.4517 29.7315 82.1197 29.8848C81.7913 30.0344 81.4191 30.1092 81.0032 30.1092C80.5873 30.1092 80.2133 30.0344 79.8813 29.8848C79.5493 29.7315 79.2647 29.5199 79.0275 29.2499C78.794 28.9763 78.6152 28.657 78.4912 28.2922C78.3671 27.9273 78.3051 27.5315 78.3051 27.1046ZM79.3176 26.9787V27.1046C79.3176 27.4001 79.3522 27.6792 79.4216 27.9419C79.4909 28.201 79.5949 28.4308 79.7335 28.6315C79.8758 28.8322 80.0528 28.9909 80.2644 29.1076C80.476 29.2207 80.7223 29.2773 81.0032 29.2773C81.2805 29.2773 81.5231 29.2207 81.7311 29.1076C81.9427 28.9909 82.1178 28.8322 82.2565 28.6315C82.3951 28.4308 82.4991 28.201 82.5684 27.9419C82.6414 27.6792 82.6779 27.4001 82.6779 27.1046V26.9787C82.6779 26.6868 82.6414 26.4114 82.5684 26.1523C82.4991 25.8896 82.3933 25.6579 82.251 25.4573C82.1124 25.2529 81.9372 25.0924 81.7256 24.9757C81.5176 24.8589 81.2732 24.8005 80.9923 24.8005C80.715 24.8005 80.4705 24.8589 80.2589 24.9757C80.0509 25.0924 79.8758 25.2529 79.7335 25.4573C79.5949 25.6579 79.4909 25.8896 79.4216 26.1523C79.3522 26.4114 79.3176 26.6868 79.3176 26.9787ZM88.698 28.8504V21.5934H89.7159V29.9997H88.7856L88.698 28.8504ZM84.7138 27.1046V26.9896C84.7138 26.5372 84.7685 26.1268 84.878 25.7583C84.9911 25.3861 85.1498 25.0669 85.3541 24.8005C85.5621 24.5342 85.8083 24.3299 86.0929 24.1876C86.3812 24.0416 86.7022 23.9687 87.0561 23.9687C87.4283 23.9687 87.753 24.0343 88.0303 24.1657C88.3112 24.2934 88.5484 24.4813 88.7418 24.7294C88.9388 24.9738 89.0939 25.2694 89.207 25.616C89.3201 25.9626 89.3985 26.3548 89.4423 26.7926V27.2961C89.4022 27.7303 89.3237 28.1207 89.207 28.4673C89.0939 28.8139 88.9388 29.1095 88.7418 29.3539C88.5484 29.5984 88.3112 29.7863 88.0303 29.9176C87.7494 30.0453 87.421 30.1092 87.0452 30.1092C86.6986 30.1092 86.3812 30.0344 86.0929 29.8848C85.8083 29.7352 85.5621 29.5254 85.3541 29.2554C85.1498 28.9854 84.9911 28.668 84.878 28.3031C84.7685 27.9346 84.7138 27.5351 84.7138 27.1046ZM85.7317 26.9896V27.1046C85.7317 27.4001 85.7609 27.6774 85.8193 27.9364C85.8813 28.1955 85.9762 28.4235 86.1039 28.6205C86.2316 28.8176 86.3939 28.9726 86.591 29.0857C86.788 29.1952 87.0233 29.2499 87.2969 29.2499C87.6326 29.2499 87.9081 29.1788 88.1233 29.0365C88.3423 28.8942 88.5174 28.7063 88.6487 28.4728C88.7801 28.2393 88.8822 27.9857 88.9552 27.7121V26.3931C88.9114 26.1924 88.8476 25.9991 88.7637 25.813C88.6834 25.6233 88.5776 25.4554 88.4462 25.3095C88.3185 25.1599 88.1598 25.0413 87.9701 24.9538C87.784 24.8662 87.5633 24.8224 87.3079 24.8224C87.0306 24.8224 86.7916 24.8808 86.591 24.9975C86.3939 25.1106 86.2316 25.2675 86.1039 25.4682C85.9762 25.6652 85.8813 25.8951 85.8193 26.1578C85.7609 26.4168 85.7317 26.6941 85.7317 26.9896ZM94.9151 28.6315V24.0781H95.933V29.9997H94.9644L94.9151 28.6315ZM95.1067 27.3837L95.5281 27.3727C95.5281 27.7668 95.4861 28.1316 95.4022 28.4673C95.3219 28.7993 95.1906 29.0876 95.0081 29.332C94.8257 29.5765 94.5867 29.768 94.2912 29.9067C93.9957 30.0417 93.6363 30.1092 93.2131 30.1092C92.9248 30.1092 92.6603 30.0672 92.4195 29.9833C92.1823 29.8994 91.978 29.7698 91.8065 29.5947C91.6351 29.4196 91.5019 29.1915 91.407 28.9106C91.3158 28.6297 91.2702 28.2922 91.2702 27.8981V24.0781H92.2827V27.9091C92.2827 28.1754 92.3119 28.3962 92.3702 28.5713C92.4323 28.7428 92.5144 28.8796 92.6165 28.9818C92.7223 29.0803 92.8391 29.1496 92.9668 29.1897C93.0981 29.2299 93.2331 29.2499 93.3718 29.2499C93.8023 29.2499 94.1434 29.1678 94.3952 29.0036C94.6469 28.8358 94.8275 28.6114 94.937 28.3305C95.0501 28.0459 95.1067 27.7303 95.1067 27.3837ZM99.8461 29.2773C100.087 29.2773 100.309 29.228 100.514 29.1295C100.718 29.031 100.886 28.896 101.017 28.7245C101.149 28.5494 101.223 28.3506 101.242 28.128H102.205C102.187 28.4783 102.068 28.8048 101.849 29.1076C101.634 29.4068 101.351 29.6494 101.001 29.8355C100.651 30.0179 100.266 30.1092 99.8461 30.1092C99.401 30.1092 99.0124 30.0307 98.6804 29.8738C98.352 29.7169 98.0784 29.5017 97.8595 29.228C97.6442 28.9544 97.4819 28.6406 97.3724 28.2867C97.2666 27.9292 97.2137 27.5515 97.2137 27.1538V26.924C97.2137 26.5263 97.2666 26.1505 97.3724 25.7966C97.4819 25.439 97.6442 25.1234 97.8595 24.8498C98.0784 24.5761 98.352 24.3609 98.6804 24.204C99.0124 24.0471 99.401 23.9687 99.8461 23.9687C100.309 23.9687 100.714 24.0635 101.061 24.2532C101.408 24.4393 101.68 24.6947 101.877 25.0194C102.077 25.3405 102.187 25.7054 102.205 26.114H101.242C101.223 25.8695 101.154 25.6488 101.034 25.4518C100.917 25.2548 100.756 25.0979 100.552 24.9811C100.351 24.8607 100.116 24.8005 99.8461 24.8005C99.536 24.8005 99.2751 24.8625 99.0635 24.9866C98.8555 25.107 98.6895 25.2712 98.5655 25.4792C98.4451 25.6835 98.3575 25.9115 98.3028 26.1633C98.2517 26.4114 98.2262 26.6649 98.2262 26.924V27.1538C98.2262 27.4129 98.2517 27.6683 98.3028 27.92C98.3539 28.1718 98.4396 28.3998 98.56 28.6041C98.6841 28.8084 98.8501 28.9726 99.058 29.0967C99.2696 29.2171 99.5323 29.2773 99.8461 29.2773ZM105.822 24.0781V24.8552H102.621V24.0781H105.822ZM103.704 22.6388H104.717V28.533C104.717 28.7337 104.748 28.8851 104.81 28.9872C104.872 29.0894 104.952 29.1569 105.051 29.1897C105.149 29.2226 105.255 29.239 105.368 29.239C105.452 29.239 105.54 29.2317 105.631 29.2171C105.726 29.1988 105.797 29.1842 105.844 29.1733L105.85 29.9997C105.77 30.0252 105.664 30.049 105.532 30.0708C105.405 30.0964 105.25 30.1092 105.067 30.1092C104.819 30.1092 104.591 30.0599 104.383 29.9614C104.175 29.8629 104.009 29.6987 103.885 29.4688C103.765 29.2353 103.704 28.9216 103.704 28.5275V22.6388ZM112.269 24.0781V24.8552H109.068V24.0781H112.269ZM110.151 22.6388H111.164V28.533C111.164 28.7337 111.195 28.8851 111.257 28.9872C111.319 29.0894 111.399 29.1569 111.498 29.1897C111.596 29.2226 111.702 29.239 111.815 29.239C111.899 29.239 111.987 29.2317 112.078 29.2171C112.173 29.1988 112.244 29.1842 112.291 29.1733L112.297 29.9997C112.217 30.0252 112.111 30.049 111.979 30.0708C111.852 30.0964 111.697 30.1092 111.514 30.1092C111.266 30.1092 111.038 30.0599 110.83 29.9614C110.622 29.8629 110.456 29.6987 110.332 29.4688C110.212 29.2353 110.151 28.9216 110.151 28.5275V22.6388ZM113.079 27.1046V26.9787C113.079 26.5518 113.141 26.156 113.265 25.7911C113.39 25.4226 113.568 25.1034 113.802 24.8334C114.035 24.5597 114.318 24.3481 114.65 24.1985C114.982 24.0453 115.354 23.9687 115.767 23.9687C116.182 23.9687 116.556 24.0453 116.888 24.1985C117.224 24.3481 117.509 24.5597 117.742 24.8334C117.979 25.1034 118.16 25.4226 118.284 25.7911C118.408 26.156 118.47 26.5518 118.47 26.9787V27.1046C118.47 27.5315 118.408 27.9273 118.284 28.2922C118.16 28.657 117.979 28.9763 117.742 29.2499C117.509 29.5199 117.226 29.7315 116.894 29.8848C116.566 30.0344 116.193 30.1092 115.777 30.1092C115.362 30.1092 114.988 30.0344 114.656 29.8848C114.324 29.7315 114.039 29.5199 113.802 29.2499C113.568 28.9763 113.39 28.657 113.265 28.2922C113.141 27.9273 113.079 27.5315 113.079 27.1046ZM114.092 26.9787V27.1046C114.092 27.4001 114.127 27.6792 114.196 27.9419C114.265 28.201 114.369 28.4308 114.508 28.6315C114.65 28.8322 114.827 28.9909 115.039 29.1076C115.25 29.2207 115.497 29.2773 115.777 29.2773C116.055 29.2773 116.297 29.2207 116.505 29.1076C116.717 28.9909 116.892 28.8322 117.031 28.6315C117.169 28.4308 117.273 28.201 117.343 27.9419C117.416 27.6792 117.452 27.4001 117.452 27.1046V26.9787C117.452 26.6868 117.416 26.4114 117.343 26.1523C117.273 25.8896 117.168 25.6579 117.025 25.4573C116.887 25.2529 116.712 25.0924 116.5 24.9757C116.292 24.8589 116.047 24.8005 115.767 24.8005C115.489 24.8005 115.245 24.8589 115.033 24.9757C114.825 25.0924 114.65 25.2529 114.508 25.4573C114.369 25.6579 114.265 25.8896 114.196 26.1523C114.127 26.4114 114.092 26.6868 114.092 26.9787ZM124.999 24.0781V24.8552H121.798V24.0781H124.999ZM122.881 22.6388H123.894V28.533C123.894 28.7337 123.925 28.8851 123.987 28.9872C124.049 29.0894 124.129 29.1569 124.228 29.1897C124.326 29.2226 124.432 29.239 124.545 29.239C124.629 29.239 124.716 29.2317 124.808 29.2171C124.903 29.1988 124.974 29.1842 125.021 29.1733L125.027 29.9997C124.946 30.0252 124.84 30.049 124.709 30.0708C124.581 30.0964 124.426 30.1092 124.244 30.1092C123.996 30.1092 123.768 30.0599 123.56 29.9614C123.352 29.8629 123.186 29.6987 123.062 29.4688C122.941 29.2353 122.881 28.9216 122.881 28.5275V22.6388ZM127.199 21.5934V29.9997H126.187V21.5934H127.199ZM126.958 26.8145L126.537 26.7981C126.541 26.3931 126.601 26.0191 126.718 25.6762C126.834 25.3296 126.999 25.0286 127.21 24.7732C127.422 24.5178 127.674 24.3207 127.965 24.1821C128.261 24.0398 128.588 23.9687 128.945 23.9687C129.237 23.9687 129.5 24.0088 129.733 24.0891C129.967 24.1657 130.166 24.2897 130.33 24.4612C130.498 24.6327 130.625 24.8552 130.713 25.1289C130.8 25.3989 130.844 25.7291 130.844 26.1195V29.9997H129.826V26.1085C129.826 25.7984 129.781 25.5503 129.689 25.3642C129.598 25.1745 129.465 25.0377 129.29 24.9538C129.115 24.8662 128.899 24.8224 128.644 24.8224C128.392 24.8224 128.162 24.8753 127.955 24.9811C127.75 25.0869 127.573 25.2329 127.424 25.419C127.278 25.605 127.163 25.8185 127.079 26.0593C126.999 26.2964 126.958 26.5482 126.958 26.8145ZM134.817 30.1092C134.405 30.1092 134.031 30.0398 133.696 29.9012C133.363 29.7589 133.077 29.5601 132.836 29.3047C132.599 29.0493 132.417 28.7464 132.289 28.3962C132.161 28.0459 132.097 27.6628 132.097 27.2469V27.017C132.097 26.5354 132.169 26.1067 132.311 25.7309C132.453 25.3515 132.647 25.0304 132.891 24.7677C133.135 24.505 133.413 24.3061 133.723 24.1711C134.033 24.0362 134.354 23.9687 134.686 23.9687C135.109 23.9687 135.474 24.0416 135.781 24.1876C136.091 24.3335 136.344 24.5378 136.541 24.8005C136.738 25.0596 136.884 25.366 136.979 25.72C137.074 26.0702 137.121 26.4533 137.121 26.8692V27.3235H132.699V26.4971H136.109V26.4205C136.094 26.1578 136.04 25.9024 135.945 25.6543C135.854 25.4062 135.708 25.2019 135.507 25.0413C135.306 24.8808 135.033 24.8005 134.686 24.8005C134.456 24.8005 134.245 24.8498 134.051 24.9483C133.858 25.0431 133.692 25.1854 133.553 25.3752C133.415 25.5649 133.307 25.7966 133.23 26.0702C133.154 26.3439 133.115 26.6595 133.115 27.017V27.2469C133.115 27.5278 133.154 27.7923 133.23 28.0404C133.311 28.2849 133.426 28.5001 133.575 28.6862C133.728 28.8723 133.913 29.0182 134.128 29.124C134.347 29.2299 134.595 29.2828 134.872 29.2828C135.23 29.2828 135.533 29.2098 135.781 29.0638C136.029 28.9179 136.246 28.7227 136.432 28.4783L137.045 28.9653C136.917 29.1587 136.755 29.343 136.558 29.5181C136.361 29.6932 136.118 29.8355 135.83 29.945C135.545 30.0544 135.208 30.1092 134.817 30.1092ZM142.096 25.3423V29.9997H141.084V24.0781H142.042L142.096 25.3423ZM141.855 26.8145L141.434 26.7981C141.438 26.3931 141.498 26.0191 141.615 25.6762C141.731 25.3296 141.896 25.0286 142.107 24.7732C142.319 24.5178 142.571 24.3207 142.862 24.1821C143.158 24.0398 143.485 23.9687 143.842 23.9687C144.134 23.9687 144.397 24.0088 144.63 24.0891C144.864 24.1657 145.063 24.2897 145.227 24.4612C145.395 24.6327 145.522 24.8552 145.61 25.1289C145.697 25.3989 145.741 25.7291 145.741 26.1195V29.9997H144.723V26.1085C144.723 25.7984 144.678 25.5503 144.586 25.3642C144.495 25.1745 144.362 25.0377 144.187 24.9538C144.012 24.8662 143.797 24.8224 143.541 24.8224C143.289 24.8224 143.06 24.8753 142.852 24.9811C142.647 25.0869 142.47 25.2329 142.321 25.419C142.175 25.605 142.06 25.8185 141.976 26.0593C141.896 26.2964 141.855 26.5482 141.855 26.8145ZM149.736 30.1092C149.324 30.1092 148.95 30.0398 148.614 29.9012C148.282 29.7589 147.996 29.5601 147.755 29.3047C147.518 29.0493 147.336 28.7464 147.208 28.3962C147.08 28.0459 147.016 27.6628 147.016 27.2469V27.017C147.016 26.5354 147.087 26.1067 147.23 25.7309C147.372 25.3515 147.565 25.0304 147.81 24.7677C148.054 24.505 148.332 24.3061 148.642 24.1711C148.952 24.0362 149.273 23.9687 149.605 23.9687C150.028 23.9687 150.393 24.0416 150.7 24.1876C151.01 24.3335 151.263 24.5378 151.46 24.8005C151.657 25.0596 151.803 25.366 151.898 25.72C151.993 26.0702 152.04 26.4533 152.04 26.8692V27.3235H147.618V26.4971H151.028V26.4205C151.013 26.1578 150.959 25.9024 150.864 25.6543C150.773 25.4062 150.627 25.2019 150.426 25.0413C150.225 24.8808 149.952 24.8005 149.605 24.8005C149.375 24.8005 149.164 24.8498 148.97 24.9483C148.777 25.0431 148.611 25.1854 148.472 25.3752C148.333 25.5649 148.226 25.7966 148.149 26.0702C148.073 26.3439 148.034 26.6595 148.034 27.017V27.2469C148.034 27.5278 148.073 27.7923 148.149 28.0404C148.229 28.2849 148.344 28.5001 148.494 28.6862C148.647 28.8723 148.831 29.0182 149.047 29.124C149.266 29.2299 149.514 29.2828 149.791 29.2828C150.149 29.2828 150.451 29.2098 150.7 29.0638C150.948 28.9179 151.165 28.7227 151.351 28.4783L151.964 28.9653C151.836 29.1587 151.674 29.343 151.477 29.5181C151.28 29.6932 151.037 29.8355 150.749 29.945C150.464 30.0544 150.127 30.1092 149.736 30.1092ZM153.907 24.0781L155.204 26.2344L156.517 24.0781H157.705L155.767 27.0006L157.765 29.9997H156.594L155.226 27.7777L153.857 29.9997H152.681L154.673 27.0006L152.741 24.0781H153.907ZM161.262 24.0781V24.8552H158.061V24.0781H161.262ZM159.144 22.6388H160.157V28.533C160.157 28.7337 160.188 28.8851 160.25 28.9872C160.312 29.0894 160.392 29.1569 160.49 29.1897C160.589 29.2226 160.695 29.239 160.808 29.239C160.892 29.239 160.979 29.2317 161.071 29.2171C161.165 29.1988 161.237 29.1842 161.284 29.1733L161.289 29.9997C161.209 30.0252 161.103 30.049 160.972 30.0708C160.844 30.0964 160.689 30.1092 160.507 30.1092C160.259 30.1092 160.031 30.0599 159.823 29.9614C159.615 29.8629 159.449 29.6987 159.325 29.4688C159.204 29.2353 159.144 28.9216 159.144 28.5275V22.6388ZM166.33 21.5934V29.9997H165.312V21.5934H166.33ZM170.413 30.1092C170 30.1092 169.626 30.0398 169.291 29.9012C168.959 29.7589 168.672 29.5601 168.431 29.3047C168.194 29.0493 168.012 28.7464 167.884 28.3962C167.757 28.0459 167.693 27.6628 167.693 27.2469V27.017C167.693 26.5354 167.764 26.1067 167.906 25.7309C168.048 25.3515 168.242 25.0304 168.486 24.7677C168.731 24.505 169.008 24.3061 169.318 24.1711C169.628 24.0362 169.949 23.9687 170.281 23.9687C170.705 23.9687 171.069 24.0416 171.376 24.1876C171.686 24.3335 171.94 24.5378 172.137 24.8005C172.334 25.0596 172.48 25.366 172.574 25.72C172.669 26.0702 172.717 26.4533 172.717 26.8692V27.3235H168.295V26.4971H171.704V26.4205C171.69 26.1578 171.635 25.9024 171.54 25.6543C171.449 25.4062 171.303 25.2019 171.102 25.0413C170.902 24.8808 170.628 24.8005 170.281 24.8005C170.051 24.8005 169.84 24.8498 169.646 24.9483C169.453 25.0431 169.287 25.1854 169.148 25.3752C169.01 25.5649 168.902 25.7966 168.826 26.0702C168.749 26.3439 168.711 26.6595 168.711 27.017V27.2469C168.711 27.5278 168.749 27.7923 168.826 28.0404C168.906 28.2849 169.021 28.5001 169.17 28.6862C169.324 28.8723 169.508 29.0182 169.723 29.124C169.942 29.2299 170.19 29.2828 170.467 29.2828C170.825 29.2828 171.128 29.2098 171.376 29.0638C171.624 28.9179 171.841 28.7227 172.027 28.4783L172.64 28.9653C172.512 29.1587 172.35 29.343 172.153 29.5181C171.956 29.6932 171.713 29.8355 171.425 29.945C171.141 30.0544 170.803 30.1092 170.413 30.1092ZM175.623 29.0857L177.243 24.0781H178.277L176.148 29.9997H175.47L175.623 29.0857ZM174.271 24.0781L175.94 29.1131L176.055 29.9997H175.377L173.231 24.0781H174.271ZM181.632 30.1092C181.22 30.1092 180.846 30.0398 180.51 29.9012C180.178 29.7589 179.892 29.5601 179.651 29.3047C179.414 29.0493 179.231 28.7464 179.103 28.3962C178.976 28.0459 178.912 27.6628 178.912 27.2469V27.017C178.912 26.5354 178.983 26.1067 179.125 25.7309C179.268 25.3515 179.461 25.0304 179.706 24.7677C179.95 24.505 180.227 24.3061 180.537 24.1711C180.847 24.0362 181.169 23.9687 181.501 23.9687C181.924 23.9687 182.289 24.0416 182.595 24.1876C182.905 24.3335 183.159 24.5378 183.356 24.8005C183.553 25.0596 183.699 25.366 183.794 25.72C183.889 26.0702 183.936 26.4533 183.936 26.8692V27.3235H179.514V26.4971H182.924V26.4205C182.909 26.1578 182.854 25.9024 182.759 25.6543C182.668 25.4062 182.522 25.2019 182.322 25.0413C182.121 24.8808 181.847 24.8005 181.501 24.8005C181.271 24.8005 181.059 24.8498 180.866 24.9483C180.672 25.0431 180.506 25.1854 180.368 25.3752C180.229 25.5649 180.121 25.7966 180.045 26.0702C179.968 26.3439 179.93 26.6595 179.93 27.017V27.2469C179.93 27.5278 179.968 27.7923 180.045 28.0404C180.125 28.2849 180.24 28.5001 180.39 28.6862C180.543 28.8723 180.727 29.0182 180.942 29.124C181.161 29.2299 181.409 29.2828 181.687 29.2828C182.044 29.2828 182.347 29.2098 182.595 29.0638C182.843 28.9179 183.06 28.7227 183.246 28.4783L183.859 28.9653C183.732 29.1587 183.569 29.343 183.372 29.5181C183.175 29.6932 182.933 29.8355 182.644 29.945C182.36 30.0544 182.022 30.1092 181.632 30.1092ZM186.218 21.5934V29.9997H185.2V21.5934H186.218ZM187.86 29.4634C187.86 29.2919 187.913 29.1478 188.019 29.031C188.128 28.9106 188.285 28.8504 188.489 28.8504C188.694 28.8504 188.849 28.9106 188.955 29.031C189.064 29.1478 189.119 29.2919 189.119 29.4634C189.119 29.6312 189.064 29.7735 188.955 29.8902C188.849 30.007 188.694 30.0654 188.489 30.0654C188.285 30.0654 188.128 30.007 188.019 29.8902C187.913 29.7735 187.86 29.6312 187.86 29.4634Z" fill="#C6C6C6"/>
<path d="M266.413 47.5879H2.58654C1.15803 47.5879 0 48.7459 0 50.1744V80.1783C0 81.6068 1.15803 82.7648 2.58654 82.7648H266.413C267.842 82.7648 269 81.6068 269 80.1783V50.1744C269 48.7459 267.842 47.5879 266.413 47.5879Z" fill="url(#paint0_linear_341_16078)"/>
<path d="M57.0334 68.5557H54.9038L52.2138 63.8482V68.5557H50.1963V60.7098H52.3259L55.0159 65.4173V60.7098H57.0334V68.5557ZM60.5693 63.9042C60.2704 63.9042 60.1209 64.0536 60.1209 64.3525V64.969H62.0263V64.3525C62.0263 64.0536 61.8769 63.9042 61.578 63.9042H60.5693ZM63.7636 68.4436C62.3215 68.593 61.0139 68.6677 59.8407 68.6677C59.3326 68.6677 58.9254 68.5146 58.619 68.2082C58.3127 67.9018 58.1595 67.4946 58.1595 66.9865V64.2965C58.1595 63.7361 58.3164 63.299 58.6302 62.9851C58.9515 62.6638 59.3924 62.5032 59.9528 62.5032H62.1945C62.7549 62.5032 63.192 62.6638 63.5058 62.9851C63.8272 63.299 63.9878 63.7361 63.9878 64.2965V66.37H60.1209V66.8184C60.1209 66.9305 60.1583 67.0239 60.233 67.0986C60.3077 67.1733 60.4011 67.2107 60.5132 67.2107C61.253 67.2107 62.3364 67.1546 63.7636 67.0425V68.4436ZM67.2899 63.9042C66.991 63.9042 66.8416 64.0536 66.8416 64.3525V64.969H68.747V64.3525C68.747 64.0536 68.5975 63.9042 68.2986 63.9042H67.2899ZM70.4843 68.4436C69.0421 68.593 67.7345 68.6677 66.5613 68.6677C66.0532 68.6677 65.646 68.5146 65.3396 68.2082C65.0333 67.9018 64.8801 67.4946 64.8801 66.9865V64.2965C64.8801 63.7361 65.037 63.299 65.3508 62.9851C65.6722 62.6638 66.113 62.5032 66.6734 62.5032H68.9151C69.4755 62.5032 69.9126 62.6638 70.2265 62.9851C70.5478 63.299 70.7084 63.7361 70.7084 64.2965V66.37H66.8416V66.8184C66.8416 66.9305 66.8789 67.0239 66.9536 67.0986C67.0284 67.1733 67.1218 67.2107 67.2338 67.2107C67.9736 67.2107 69.0571 67.1546 70.4843 67.0425V68.4436ZM75.9159 68.5557L75.8038 67.9952C75.4526 68.2269 75.0902 68.3987 74.7166 68.5108C74.3505 68.6154 74.0404 68.6677 73.7863 68.6677H73.282C72.7739 68.6677 72.3666 68.5146 72.0603 68.2082C71.7539 67.9018 71.6007 67.4946 71.6007 66.9865V64.4086C71.6007 63.8482 71.7576 63.411 72.0715 63.0972C72.3928 62.7759 72.8336 62.6152 73.3941 62.6152H75.6918V60.7098H77.6532V68.5557H75.9159ZM74.3468 67.0425C74.7428 67.0425 75.1911 66.9678 75.6918 66.8184V64.1284H74.0105C73.7116 64.1284 73.5622 64.2778 73.5622 64.5767V66.6502C73.5622 66.7623 73.5995 66.8557 73.6743 66.9305C73.749 67.0052 73.8424 67.0425 73.9545 67.0425H74.3468ZM88.2976 68.4436C86.6313 68.593 85.249 68.6677 84.1505 68.6677C83.4183 68.6677 82.8803 68.4959 82.5365 68.1522C82.1928 67.8084 82.021 67.2704 82.021 66.5382V62.9515C82.021 62.1669 82.1966 61.599 82.5478 61.2478C82.9064 60.8892 83.478 60.7098 84.2626 60.7098H88.2976V62.279H84.711C84.2626 62.279 84.0385 62.5032 84.0385 62.9515V66.5382C84.0385 66.71 84.087 66.8483 84.1842 66.9529C84.2888 67.05 84.4195 67.0986 84.5765 67.0986C84.7334 67.0986 84.9052 67.0986 85.092 67.0986C85.2789 67.0911 85.4731 67.0836 85.6749 67.0762C85.8766 67.0687 86.0784 67.0612 86.2801 67.0537C86.4894 67.0463 86.7546 67.0313 87.0759 67.0089C87.4047 66.9865 87.8119 66.9603 88.2976 66.9305V68.4436ZM91.8296 67.0425C92.2256 67.0425 92.6739 66.9678 93.1746 66.8184V62.6152H95.136V68.5557H93.3987L93.2867 67.9952C92.9355 68.2269 92.5731 68.3987 92.1994 68.5108C91.8333 68.6154 91.5232 68.6677 91.2692 68.6677H90.7648C90.2567 68.6677 89.8494 68.5146 89.5431 68.2082C89.2367 67.9018 89.0835 67.4946 89.0835 66.9865V62.6152H91.045V66.6502C91.045 66.7623 91.0823 66.8557 91.1571 66.9305C91.2318 67.0052 91.3252 67.0425 91.4373 67.0425H91.8296ZM96.0288 66.9865C97.5456 67.0986 98.7412 67.1546 99.6154 67.1546C99.7275 67.1546 99.8209 67.1173 99.8956 67.0425C99.9704 66.9678 100.008 66.8744 100.008 66.7623V66.37H97.5979C97.0898 66.37 96.6826 66.2169 96.3762 65.9105C96.0699 65.6041 95.9167 65.1969 95.9167 64.6888V64.2965C95.9167 63.7884 96.0699 63.3811 96.3762 63.0748C96.6826 62.7684 97.0898 62.6152 97.5979 62.6152H101.409V64.0723H98.2704C98.1583 64.0723 98.0649 64.1097 97.9902 64.1844C97.9155 64.2591 97.8781 64.3525 97.8781 64.4646C97.8781 64.5767 97.9155 64.6701 97.9902 64.7448C98.0649 64.8196 98.1583 64.8569 98.2704 64.8569H100.288C100.796 64.8569 101.203 65.0101 101.51 65.3165C101.816 65.6228 101.969 66.0301 101.969 66.5382V66.9865C101.969 67.4946 101.816 67.9018 101.51 68.2082C101.203 68.5146 100.796 68.6677 100.288 68.6677C98.9653 68.6677 97.5456 68.593 96.0288 68.4436V66.9865ZM106.902 68.5557C106.177 68.6304 105.467 68.6677 104.772 68.6677C104.264 68.6677 103.857 68.5146 103.551 68.2082C103.244 67.9018 103.091 67.4946 103.091 66.9865V64.1284H102.418V62.6152H103.091L103.315 61.2702H105.052V62.6152H106.453V64.1284H105.052V66.7063C105.052 66.8184 105.09 66.9118 105.165 66.9865C105.239 67.0612 105.333 67.0986 105.445 67.0986H106.902V68.5557ZM113.525 66.8744C113.525 67.4348 113.364 67.8757 113.043 68.197C112.729 68.5108 112.292 68.6677 111.731 68.6677H109.154C108.593 68.6677 108.152 68.5108 107.831 68.197C107.517 67.8757 107.36 67.4348 107.36 66.8744V64.2965C107.36 63.7361 107.517 63.299 107.831 62.9851C108.152 62.6638 108.593 62.5032 109.154 62.5032H111.731C112.292 62.5032 112.729 62.6638 113.043 62.9851C113.364 63.299 113.525 63.7361 113.525 64.2965V66.8744ZM111.563 64.4646C111.563 64.1657 111.414 64.0163 111.115 64.0163H109.77C109.471 64.0163 109.322 64.1657 109.322 64.4646V66.7063C109.322 67.0052 109.471 67.1546 109.77 67.1546H111.115C111.414 67.1546 111.563 67.0052 111.563 66.7063V64.4646ZM118.511 62.5032C119.116 62.5032 119.583 62.7273 119.912 63.1757C120.256 62.944 120.626 62.7759 121.022 62.6713C121.425 62.5592 121.784 62.5032 122.098 62.5032H122.21C122.718 62.5032 123.125 62.6563 123.432 62.9627C123.738 63.2691 123.891 63.6763 123.891 64.1844V68.5557H121.93V64.5207C121.93 64.4086 121.892 64.3152 121.818 64.2405C121.743 64.1657 121.65 64.1284 121.537 64.1284H121.481C121.145 64.1284 120.716 64.2031 120.192 64.3525V68.5557H118.231V64.5207C118.231 64.4086 118.194 64.3152 118.119 64.2405C118.044 64.1657 117.951 64.1284 117.839 64.1284H117.783C117.446 64.1284 117.017 64.2031 116.494 64.3525V68.5557H114.532V62.6152H116.27L116.382 63.1757C116.733 62.944 117.091 62.7759 117.458 62.6713C117.831 62.5592 118.145 62.5032 118.399 62.5032H118.511ZM130.612 67.0986C131.008 67.0986 131.456 67.0239 131.957 66.8744V66.2019H130.332C130.22 66.2019 130.126 66.2393 130.051 66.314C129.977 66.3887 129.939 66.4821 129.939 66.5942V66.7063C129.939 66.8184 129.977 66.9118 130.051 66.9865C130.126 67.0612 130.22 67.0986 130.332 67.0986H130.612ZM128.538 62.7273C129.906 62.5779 131.139 62.5032 132.237 62.5032C132.745 62.5032 133.152 62.6563 133.459 62.9627C133.765 63.2691 133.918 63.6763 133.918 64.1844V68.5557H132.181L132.069 67.9952C131.718 68.2269 131.355 68.3987 130.982 68.5108C130.616 68.6154 130.305 68.6677 130.051 68.6677H129.659C129.151 68.6677 128.744 68.5146 128.437 68.2082C128.131 67.9018 127.978 67.4946 127.978 66.9865V66.4821C127.978 65.974 128.131 65.5668 128.437 65.2604C128.744 64.9541 129.151 64.8009 129.659 64.8009H131.957V64.3525C131.957 64.2405 131.919 64.1471 131.845 64.0723C131.77 63.9976 131.677 63.9602 131.565 63.9602C131.079 63.9602 130.541 63.9827 129.951 64.0275C129.368 64.0723 128.897 64.106 128.538 64.1284V62.7273ZM138.23 64.1284C137.834 64.1284 137.386 64.2031 136.885 64.3525V68.5557H134.924V62.6152H136.661L136.773 63.1757C137.125 62.944 137.483 62.7759 137.849 62.6713C138.223 62.5592 138.537 62.5032 138.791 62.5032H139.295C139.803 62.5032 140.211 62.6563 140.517 62.9627C140.823 63.2691 140.976 63.6763 140.976 64.1844V68.5557H139.015V64.5207C139.015 64.4086 138.978 64.3152 138.903 64.2405C138.828 64.1657 138.735 64.1284 138.623 64.1284H138.23ZM144.45 62.8394V68.5557H142.488V64.3525H141.648V62.8394H144.45ZM142.488 60.5977H144.45V62.1669H142.488V60.5977ZM149.553 62.5032C150.158 62.5032 150.625 62.7273 150.954 63.1757C151.298 62.944 151.668 62.7759 152.064 62.6713C152.467 62.5592 152.826 62.5032 153.14 62.5032H153.252C153.76 62.5032 154.167 62.6563 154.473 62.9627C154.78 63.2691 154.933 63.6763 154.933 64.1844V68.5557H152.972V64.5207C152.972 64.4086 152.934 64.3152 152.859 64.2405C152.785 64.1657 152.691 64.1284 152.579 64.1284H152.523C152.187 64.1284 151.757 64.2031 151.234 64.3525V68.5557H149.273V64.5207C149.273 64.4086 149.235 64.3152 149.161 64.2405C149.086 64.1657 148.993 64.1284 148.881 64.1284H148.824C148.488 64.1284 148.059 64.2031 147.536 64.3525V68.5557H145.574V62.6152H147.311L147.423 63.1757C147.775 62.944 148.133 62.7759 148.499 62.6713C148.873 62.5592 149.187 62.5032 149.441 62.5032H149.553ZM158.293 67.0986C158.689 67.0986 159.138 67.0239 159.638 66.8744V66.2019H158.013C157.901 66.2019 157.808 66.2393 157.733 66.314C157.658 66.3887 157.621 66.4821 157.621 66.5942V66.7063C157.621 66.8184 157.658 66.9118 157.733 66.9865C157.808 67.0612 157.901 67.0986 158.013 67.0986H158.293ZM156.22 62.7273C157.587 62.5779 158.82 62.5032 159.919 62.5032C160.427 62.5032 160.834 62.6563 161.14 62.9627C161.447 63.2691 161.6 63.6763 161.6 64.1844V68.5557H159.863L159.75 67.9952C159.399 68.2269 159.037 68.3987 158.663 68.5108C158.297 68.6154 157.987 68.6677 157.733 68.6677H157.341C156.833 68.6677 156.425 68.5146 156.119 68.2082C155.813 67.9018 155.659 67.4946 155.659 66.9865V66.4821C155.659 65.974 155.813 65.5668 156.119 65.2604C156.425 64.9541 156.833 64.8009 157.341 64.8009H159.638V64.3525C159.638 64.2405 159.601 64.1471 159.526 64.0723C159.452 63.9976 159.358 63.9602 159.246 63.9602C158.76 63.9602 158.222 63.9827 157.632 64.0275C157.049 64.0723 156.578 64.106 156.22 64.1284V62.7273ZM166.753 68.5557C166.028 68.6304 165.318 68.6677 164.623 68.6677C164.115 68.6677 163.708 68.5146 163.401 68.2082C163.095 67.9018 162.942 67.4946 162.942 66.9865V64.1284H162.269V62.6152H162.942L163.166 61.2702H164.903V62.6152H166.304V64.1284H164.903V66.7063C164.903 66.8184 164.941 66.9118 165.015 66.9865C165.09 67.0612 165.183 67.0986 165.295 67.0986H166.753V68.5557ZM169.789 62.8394V68.5557H167.827V64.3525H166.987V62.8394H169.789ZM167.827 60.5977H169.789V62.1669H167.827V60.5977ZM176.966 66.8744C176.966 67.4348 176.805 67.8757 176.484 68.197C176.17 68.5108 175.733 68.6677 175.172 68.6677H172.594C172.034 68.6677 171.593 68.5108 171.272 68.197C170.958 67.8757 170.801 67.4348 170.801 66.8744V64.2965C170.801 63.7361 170.958 63.299 171.272 62.9851C171.593 62.6638 172.034 62.5032 172.594 62.5032H175.172C175.733 62.5032 176.17 62.6638 176.484 62.9851C176.805 63.299 176.966 63.7361 176.966 64.2965V66.8744ZM175.004 64.4646C175.004 64.1657 174.855 64.0163 174.556 64.0163H173.211C172.912 64.0163 172.763 64.1657 172.763 64.4646V66.7063C172.763 67.0052 172.912 67.1546 173.211 67.1546H174.556C174.855 67.1546 175.004 67.0052 175.004 66.7063V64.4646ZM181.28 64.1284C180.884 64.1284 180.435 64.2031 179.935 64.3525V68.5557H177.973V62.6152H179.71L179.823 63.1757C180.174 62.944 180.532 62.7759 180.899 62.6713C181.272 62.5592 181.586 62.5032 181.84 62.5032H182.344C182.853 62.5032 183.26 62.6563 183.566 62.9627C183.872 63.2691 184.026 63.6763 184.026 64.1844V68.5557H182.064V64.5207C182.064 64.4086 182.027 64.3152 181.952 64.2405C181.877 64.1657 181.784 64.1284 181.672 64.1284H181.28ZM184.809 66.9865C186.326 67.0986 187.521 67.1546 188.396 67.1546C188.508 67.1546 188.601 67.1173 188.676 67.0425C188.751 66.9678 188.788 66.8744 188.788 66.7623V66.37H186.378C185.87 66.37 185.463 66.2169 185.156 65.9105C184.85 65.6041 184.697 65.1969 184.697 64.6888V64.2965C184.697 63.7884 184.85 63.3811 185.156 63.0748C185.463 62.7684 185.87 62.6152 186.378 62.6152H190.189V64.0723H187.051C186.939 64.0723 186.845 64.1097 186.77 64.1844C186.696 64.2591 186.658 64.3525 186.658 64.4646C186.658 64.5767 186.696 64.6701 186.77 64.7448C186.845 64.8196 186.939 64.8569 187.051 64.8569H189.068C189.576 64.8569 189.983 65.0101 190.29 65.3165C190.596 65.6228 190.749 66.0301 190.749 66.5382V66.9865C190.749 67.4946 190.596 67.9018 190.29 68.2082C189.983 68.5146 189.576 68.6677 189.068 68.6677C187.746 68.6677 186.326 68.593 184.809 68.4436V66.9865ZM191.086 60.8219C192.529 60.6725 193.874 60.5977 195.121 60.5977C195.854 60.5977 196.392 60.7696 196.735 61.1133C197.079 61.4571 197.251 61.9951 197.251 62.7273V63.2317C197.251 63.7921 197.139 64.218 196.915 64.5095C196.691 64.8083 196.298 65.0549 195.738 65.2492L194.617 65.6415V66.2019H192.6V64.6327L195.234 63.68V62.7273C195.234 62.5555 195.181 62.421 195.077 62.3238C194.98 62.2192 194.808 62.1669 194.561 62.1669C194.113 62.1669 193.53 62.1893 192.813 62.2342C192.103 62.279 191.527 62.3126 191.086 62.335V60.8219ZM192.6 66.8744H194.617V68.5557H192.6V66.8744Z" fill="#2B591E"/>
<path d="M207.689 59.2693C207.983 58.5391 209.017 58.5391 209.311 59.2693L210.442 62.0706C210.483 62.1729 210.578 62.2432 210.688 62.2521L213.527 62.4838C214.297 62.5466 214.613 63.5029 214.034 64.0129L211.88 65.9074C211.8 65.9775 211.765 66.0854 211.787 66.189L212.476 69.3198C212.648 70.1019 211.766 70.6851 211.114 70.2206L208.669 68.4798C208.568 68.4077 208.432 68.4077 208.331 68.4798L205.886 70.2206C205.234 70.6851 204.352 70.1019 204.524 69.3198L205.213 66.189C205.235 66.0854 205.2 65.9775 205.12 65.9074L202.966 64.0129C202.386 63.5029 202.703 62.5466 203.473 62.4838L206.312 62.2521C206.422 62.2432 206.517 62.1729 206.558 62.0706L207.689 59.2693Z" fill="#2B591E"/>
<defs>
<linearGradient id="paint0_linear_341_16078" x1="338.255" y1="56.6387" x2="317.634" y2="-24.5545" gradientUnits="userSpaceOnUse">
<stop stop-color="#96E6A1"/>
<stop offset="1" stop-color="#D4FC79"/>
</linearGradient>
</defs>
</svg>
