<svg width="100" height="100" viewBox="0 0 100 100" fill="none" xmlns="http://www.w3.org/2000/svg">
<path d="M96.4032 61.8502C89.9481 87.4671 63.9948 102.992 38.4356 96.5081C38.4324 96.5073 38.4291 96.5069 38.4258 96.5071V96.5071C38.4226 96.5072 38.4193 96.5069 38.4161 96.5061C12.8587 90.0265 -2.62935 63.9917 3.83507 38.3743C10.2999 12.7553 36.2567 -2.77028 61.8174 3.71714C87.3777 10.1947 102.868 36.2213 96.4032 61.8502Z" fill="#7C4EFF"/>
<path d="M70.2416 27.4102C70.2025 25.1704 68.3571 23.3913 66.1174 23.4304L66.1075 23.4309C57.9448 23.5881 51.6212 31.9249 46.1981 48.5563C41.9837 61.4919 37.3998 68.3986 33.6312 68.7471C31.4093 68.9524 29.7744 70.9381 29.9802 73.1698C30.186 75.4016 32.1628 77.0469 34.3847 76.8415C42.3135 76.1059 48.5019 67.608 53.8907 51.0865C58.0719 38.2706 62.5989 31.6223 66.2727 31.5537C68.512 31.5046 70.2807 29.6499 70.2416 27.4102Z" fill="white"/>
<path d="M65.6107 76.2548C67.7557 76.9005 70.0128 75.6857 70.6586 73.5407L70.6612 73.5311C73.0008 65.7093 66.9897 57.1445 52.8044 46.9077C41.7703 38.9491 36.5906 32.4773 37.408 28.7819C37.8901 26.6033 36.4976 24.4406 34.3094 23.956C32.1212 23.4714 29.9514 24.8523 29.4694 27.031C27.7519 34.8064 33.9578 43.2916 48.0488 53.4622C58.979 61.3527 63.93 67.6916 62.875 71.2113C62.2387 73.3588 63.4657 75.609 65.6107 76.2548Z" fill="white" fill-opacity="0.26"/>
</svg>
