<svg width="260" height="56" viewBox="0 0 260 56" fill="none" xmlns="http://www.w3.org/2000/svg">
<g clip-path="url(#clip0_824_52764)">
<rect width="260" height="56" fill="url(#paint0_linear_824_52764)"/>
<rect x="5" y="5" width="250" height="46" rx="8" fill="#F2F2F2" stroke="#C3CAD9"/>
<g clip-path="url(#clip1_824_52764)">

<!-- Added Text -->
<text x="64.285" y="34" fill="#212121" font-family="sans-serif" font-weight="bold" font-size="18px">Browse Animations</text>
</g>
<rect x="14" y="13" width="29.9717" height="29.9717" rx="14.9858" fill="url(#paint1_linear_824_52764)"/>
<path d="M28.731 20.3302C28.7604 20.3177 28.7863 20.2984 28.813 20.2808C28.9113 20.2163 29.0601 20.2163 29.1583 20.2808C29.1851 20.2984 29.211 20.3177 29.2404 20.3302L35.804 23.1294C36.0065 23.2158 36.0068 23.5028 35.8044 23.5896L29.0843 26.4696C29.0213 26.4966 28.9501 26.4966 28.8871 26.4696L22.167 23.5896C21.9646 23.5028 21.9648 23.2158 22.1674 23.1294L28.731 20.3302Z" fill="white"/>
<path d="M21.4523 24.4544C21.2872 24.3837 21.1035 24.5048 21.1035 24.6844V32.3973C21.1035 32.5895 21.1914 32.7817 21.3672 32.8132C21.4008 32.8192 21.435 32.8247 21.4664 32.8383L28.1106 35.7141C28.2758 35.7856 28.4602 35.6645 28.4602 35.4845V27.6228C28.4602 27.5227 28.4005 27.4323 28.3085 27.3928L21.4523 24.4544Z" fill="white"/>
<path d="M29.5112 27.6228C29.5112 27.5227 29.5708 27.4323 29.6628 27.3928L36.519 24.4544C36.6842 24.3837 36.8678 24.5048 36.8678 24.6844V32.3973C36.8678 32.6075 36.7627 32.8177 36.5525 32.9228L29.8579 35.7205C29.693 35.7894 29.5112 35.6683 29.5112 35.4897V27.6228Z" fill="white"/>
</g>
<defs>

<!-- Added animation -->

<linearGradient id="paint0_linear_824_52764" x1="11.6095" y1="3.17527" x2="81.2003" y2="143.014" gradientUnits="userSpaceOnUse">
  <stop stop-color="#FCCB71">
    <animate attributeName="stop-color" values="#FCCB71; #FF707B; #DF64B1; #9860FB; #6171FE; #5499FF; #FCCB71" dur="4s" repeatCount="indefinite"></animate>
  </stop>
  <stop offset="0.29276" stop-color="#FF707B">
    <animate attributeName="stop-color" values="#FF707B; #DF64B1; #9860FB; #6171FE; #5499FF; #FCCB71; #FF707B" dur="4s" repeatCount="indefinite"></animate>
  </stop>
  <stop offset="0.479634" stop-color="#DF64B1">
    <animate attributeName="stop-color" values="#DF64B1; #9860FB; #6171FE; #5499FF; #FCCB71; #FF707B; #DF64B1" dur="4s" repeatCount="indefinite"></animate>
  </stop>
  <stop offset="0.675956" stop-color="#eb60fb">
    <animate attributeName="stop-color" values="#9860FB; #6171FE; #5499FF; #FCCB71; #FF707B; #DF64B1; #9860FB" dur="4s" repeatCount="indefinite"></animate>
  </stop>
  <stop offset="0.828613" stop-color="#4e5ff8">
    <animate attributeName="stop-color" values="#6171FE; #5499FF; #FCCB71; #FF707B; #DF64B1; #9860FB; #6171FE" dur="4s" repeatCount="indefinite"></animate>
  </stop>
  <stop offset="1" stop-color="#604efb">
    <animate attributeName="stop-color" values="#5499FF; #FCCB71; #FF707B; #DF64B1; #9860FB; #6171FE; #5499FF" dur="4s" repeatCount="indefinite"></animate>
  </stop>
</linearGradient>


<linearGradient id="paint1_linear_824_52764" x1="15.3383" y1="14.6994" x2="49.3767" y2="29.4314" gradientUnits="userSpaceOnUse">
<stop stop-color="#FCCB71"/>
<stop offset="0.29276" stop-color="#FF707B"/>
<stop offset="0.479634" stop-color="#DF64B1"/>
<stop offset="0.675956" stop-color="#9860FB"/>
<stop offset="0.828613" stop-color="#6171FE"/>
<stop offset="1" stop-color="#5499FF"/>
</linearGradient>
<clipPath id="clip0_824_52764">
<rect width="260" height="56" rx="9" fill="white"/>
</clipPath>
<clipPath id="clip1_824_52764">
<rect width="183" height="22" fill="white" transform="translate(61 17)"/>
</clipPath>
</defs>
</svg>
