<svg width="169" height="101" viewBox="0 0 169 101" fill="none" xmlns="http://www.w3.org/2000/svg">
<path d="M130.403 61.984C123.948 87.6009 97.9948 103.126 72.4356 96.6419C72.4324 96.641 72.4291 96.6407 72.4258 96.6409V96.6409C72.4226 96.641 72.4193 96.6407 72.4161 96.6399C46.8587 90.1603 31.3707 64.1255 37.8351 38.5081C44.2999 12.8891 70.2567 -2.63649 95.8174 3.85093C121.378 10.3285 136.868 36.3551 130.403 61.984Z" fill="url(#paint0_linear_121_5512)"/>
<path d="M101.193 19.2486C100.575 16.7101 98.019 15.1585 95.4805 15.777L95.4693 15.7801C86.2214 18.0507 81.1622 29.1574 79.2532 49.4716C77.7724 65.2708 74.3263 74.3044 70.1274 75.6666C67.6518 76.4697 66.3002 79.1481 67.1063 81.6348C67.9123 84.1215 70.5834 85.4871 73.059 84.6841C81.8925 81.8153 86.7566 70.5599 88.6548 50.3795C90.1284 34.7251 93.576 26 97.7388 24.9805C100.274 24.3509 101.812 21.7872 101.193 19.2486Z" fill="white"/>
<path d="M108.44 76.015C111.047 76.2002 113.304 74.2394 113.489 71.6332L113.489 71.6216C114.147 62.1218 105.112 53.9164 86.3481 45.9031C71.7531 39.6746 64.2008 33.6377 64.184 29.2234C64.1742 26.6208 62.0356 24.5168 59.4215 24.5261C56.8074 24.5354 54.6923 26.6627 54.7021 29.2653C54.7403 38.5529 63.9761 46.6178 82.6163 54.5799C97.0755 60.7575 104.334 66.7018 104.035 70.9771C103.861 73.5838 105.834 75.8298 108.44 76.015Z" fill="white" fill-opacity="0.3"/>
<g clip-path="url(#clip0_121_5512)">
<path fill-rule="evenodd" clip-rule="evenodd" d="M33.0404 31.2248C23.9016 31.2248 16.5202 23.8141 16.5202 14.7046C16.5202 23.8141 9.10955 31.2248 0 31.2248C9.10955 31.2248 16.5202 38.6062 16.5202 47.7157C16.5202 38.6062 23.9016 31.2248 33.0404 31.2248Z" fill="#FFD93B"/>
<path fill-rule="evenodd" clip-rule="evenodd" d="M50.0001 39.7483C44.9913 39.7483 40.9491 35.6769 40.9491 30.6974C40.9491 35.6769 36.8776 39.7483 31.8981 39.7483C36.8776 39.7483 40.9491 43.7905 40.9491 48.7993C40.9491 43.7905 44.9913 39.7483 50.0001 39.7483ZM44.7862 12.2146C38.6937 12.2146 33.7728 7.29373 33.7728 1.20117C33.7728 7.29373 28.8518 12.2146 22.7593 12.2146C28.8518 12.2146 33.7728 17.1356 33.7728 23.2281C33.7728 17.1356 38.6937 12.2146 44.7862 12.2146Z" fill="#FFB030"/>
</g>
<path fill-rule="evenodd" clip-rule="evenodd" d="M168.056 75.0278C154.21 75.0278 143.028 63.8008 143.028 50C143.028 63.8008 131.801 75.0278 118 75.0278C131.801 75.0278 143.028 86.2104 143.028 100.011C143.028 86.2104 154.21 75.0278 168.056 75.0278Z" fill="#FFD93B"/>
<defs>
<linearGradient id="paint0_linear_121_5512" x1="34.2342" y1="7.11728" x2="120.254" y2="102.391" gradientUnits="userSpaceOnUse">
<stop stop-color="#3935F5"/>
<stop offset="0.78125" stop-color="#6735F5"/>
</linearGradient>
<clipPath id="clip0_121_5512">
<rect width="50" height="50" fill="white"/>
</clipPath>
</defs>
</svg>
