<svg width="100" height="101" viewBox="0 0 100 101" fill="none" xmlns="http://www.w3.org/2000/svg">
<path d="M96.4032 61.984C89.9477 87.6025 63.9915 103.128 38.4308 96.6406L38.4209 96.6411C12.8606 90.1636 -2.62975 64.1271 3.83507 38.5081C10.2999 12.8891 36.2567 -2.63649 61.8174 3.85093C87.3777 10.3285 102.868 36.3551 96.4032 61.984Z" fill="url(#paint0_linear_117_4771)"/>
<path d="M70.2416 27.5439C70.2025 25.3042 68.3571 23.5251 66.1174 23.5642L66.1075 23.5647C57.9448 23.7219 51.6212 32.0587 46.1981 48.6901C41.9837 61.6257 37.3998 68.5324 33.6312 68.8809C31.4093 69.0862 29.7744 71.0719 29.9802 73.3036C30.186 75.5354 32.1628 77.1806 34.3847 76.9753C42.3135 76.2397 48.5019 67.7418 53.8907 51.2203C58.0719 38.4044 62.5989 31.7561 66.2727 31.6875C68.512 31.6384 70.2807 29.7837 70.2416 27.5439Z" fill="white"/>
<path d="M65.6107 76.3885C67.7557 77.0343 70.0128 75.8195 70.6586 73.6745L70.6612 73.6649C73.0008 65.8431 66.9897 57.2783 52.8044 47.0415C41.7703 39.0829 36.5906 32.611 37.408 28.9157C37.8901 26.7371 36.4976 24.5744 34.3094 24.0898C32.1212 23.6052 29.9514 24.9861 29.4694 27.1648C27.7519 34.9402 33.9578 43.4254 48.0488 53.596C58.979 61.4864 63.93 67.8254 62.875 71.3451C62.2387 73.4926 63.4657 75.7428 65.6107 76.3885Z" fill="white" fill-opacity="0.3"/>
<defs>
<linearGradient id="paint0_linear_117_4771" x1="-0.900647" y1="30.2903" x2="89.9636" y2="60.3533" gradientUnits="userSpaceOnUse">
<stop stop-color="#FCCB71"/>
<stop offset="0.352564" stop-color="#FF949D"/>
<stop offset="0.642451" stop-color="#EF73C1"/>
<stop offset="1" stop-color="#857CFF"/>
</linearGradient>
</defs>
</svg>
